<?xml version="1.0" standalone="no"?>
<!DOCTYPE svg PUBLIC "-//W3C//DTD SVG 20010904//EN"
 "http://www.w3.org/TR/2001/REC-SVG-20010904/DTD/svg10.dtd">
<svg version="1.0" xmlns="http://www.w3.org/2000/svg"
 width="512.000000pt" height="512.000000pt" viewBox="0 0 512.000000 512.000000"
 preserveAspectRatio="xMidYMid meet">
<metadata>
Created by potrace 1.11, written by Peter Selinger 2001-2013
</metadata>
<g transform="translate(0.000000,512.000000) scale(0.100000,-0.100000)"
fill="#000000" stroke="none">
<path d="M981 3745 c0 -160 6 -280 14 -335 8 -47 17 -100 20 -118 3 -18 7 -52
10 -75 3 -23 7 -53 10 -67 5 -24 10 -59 20 -130 2 -19 11 -78 19 -130 53 -338
59 -378 91 -595 3 -22 10 -65 15 -95 5 -30 12 -73 15 -95 3 -22 8 -51 10 -65
2 -14 11 -74 20 -135 8 -60 20 -135 25 -165 5 -30 12 -77 15 -105 4 -27 8 -57
10 -65 4 -12 26 -154 51 -333 3 -21 7 -46 9 -55 2 -9 4 -26 4 -38 1 -20 4 -20
435 -20 239 1 437 3 439 6 5 5 12 43 22 125 4 28 8 57 10 65 2 8 7 35 10 60 3
25 15 99 25 165 20 129 27 173 36 233 3 20 14 91 24 157 11 66 22 141 25 165
3 25 10 70 15 100 5 30 12 73 15 95 2 22 7 51 9 65 3 14 8 45 11 70 3 25 8 56
11 70 2 14 6 39 8 55 3 17 9 59 15 95 5 36 12 83 16 105 3 22 12 81 20 130 7
50 17 110 20 135 3 25 8 56 10 70 13 80 46 301 51 335 2 21 7 41 9 44 3 2 5
-524 5 -1170 l0 -1175 633 0 632 1 64 35 c124 67 186 151 215 294 21 101 22
735 1 832 -28 132 -108 235 -227 293 l-66 33 68 35 c120 62 190 152 224 288
13 49 15 121 13 390 -2 182 -6 339 -9 350 -45 149 -102 222 -223 287 l-60 33
-928 1 c-540 0 -931 -4 -934 -9 -6 -9 -7 -18 -18 -157 -4 -47 -8 -101 -10
-120 -2 -19 -6 -71 -10 -115 -15 -177 -25 -291 -30 -340 -3 -22 -7 -71 -10
-110 -3 -38 -7 -90 -10 -115 -2 -25 -7 -76 -10 -115 -3 -38 -8 -90 -10 -115
-2 -25 -6 -79 -10 -120 -3 -41 -8 -99 -10 -127 -3 -29 -7 -77 -10 -105 -2 -29
-7 -84 -10 -123 -3 -38 -8 -86 -10 -105 -3 -19 -7 -75 -11 -125 -4 -49 -8
-102 -9 -118 -1 -15 -5 -30 -9 -34 -12 -12 -36 -12 -37 0 -1 7 -2 30 -4 52 -1
22 -5 69 -9 105 -7 72 -13 142 -21 240 -3 36 -7 81 -10 100 -2 19 -7 71 -10
115 -13 165 -25 304 -30 345 -2 19 -7 71 -10 115 -8 105 -18 224 -30 345 -2
25 -7 74 -9 110 -3 36 -9 97 -12 135 -8 83 -9 101 -19 220 -4 50 -9 99 -10
110 -1 11 -3 29 -4 41 -1 20 -5 20 -301 20 l-301 0 2 -251z m2481 -234 c4 0
14 -8 22 -17 14 -13 16 -58 16 -336 0 -390 15 -358 -162 -358 l-118 0 0 358 0
359 118 -2 c64 -1 120 -3 124 -4z m19 -1213 c18 -20 19 -43 19 -337 -1 -285
-2 -318 -18 -337 -16 -19 -28 -21 -137 -20 l-120 1 -3 358 -2 357 121 0 c112
0 123 -2 140 -22z"/>
</g>
</svg>
