<svg xmlns="http://www.w3.org/2000/svg" viewBox="0 0 45.35 45.35"><defs><style>.cls-1{fill:none;}</style></defs><g id="Layer_2" data-name="Layer 2"><g id="Capa_1" data-name="Capa 1"><circle cx="18.2" cy="33.97" r="3.72"/><path d="M30.12,30.22h0a3.75,3.75,0,1,0-.74,7.47,3.05,3.05,0,0,0,.74,0,3.75,3.75,0,0,0,0-7.47Z"/><path d="M37.78,16.06a1,1,0,0,0-.83-.44H32.83v-.07a7.91,7.91,0,1,0-15.82,0h0v.07H13.94l-1-4.77A1.09,1.09,0,0,0,11.84,10H7.32v2.17H11l3.36,15.43a1.05,1.05,0,0,0,1.05.86H34.27a1.07,1.07,0,0,0,1-.83L38,17A1,1,0,0,0,37.78,16.06ZM24.92,21.29a5.74,5.74,0,1,1,5.74-5.74A5.75,5.75,0,0,1,24.92,21.29Z"/><path d="M24.05,15.66l-2-2-1.55,1.52,2.75,2.78a1.08,1.08,0,0,0,.76.33,1,1,0,0,0,.75-.29l4.56-4.3-1.49-1.59Z"/><rect class="cls-1" width="45.35" height="45.35"/></g></g></svg>