<svg xmlns="http://www.w3.org/2000/svg" viewBox="0 0 100 100"><defs><style>.cls-1{fill:#f6f6f6;}.cls-2{fill:#ddd;}</style></defs><g id="Layer_2" data-name="Layer 2"><g id="Layer_1-2" data-name="Layer 1"><g id="Group_43" data-name="Group 43"><rect id="Rectangle_25" data-name="Rectangle 25" class="cls-1" width="100" height="100"/><path id="Path_3" data-name="Path 3" class="cls-2" d="M78.25,24.65H21.75A2.74,2.74,0,0,0,19,27.38V73a2.75,2.75,0,0,0,2.74,2.74h56.5A2.75,2.75,0,0,0,81,73V27.38A2.74,2.74,0,0,0,78.25,24.65Zm0,48.37H21.75V27.38h56.5Zm-51.37-8.9H73.12a1.36,1.36,0,0,0,1.36-1.36V32.52a1.36,1.36,0,0,0-1.36-1.37H26.88a1.36,1.36,0,0,0-1.36,1.37V62.76a1.36,1.36,0,0,0,1.36,1.36Zm44.87-2.73H63.64l-5.77-5.77,4.29-4.29,9.27,9.27a1.49,1.49,0,0,0,.32.24Zm0-27.5V57l-8.62-8.62a1.38,1.38,0,0,0-1.94,0l-5.25,5.26-12-12a1.38,1.38,0,0,0-1.94,0l-13.7,13.7V33.89ZM28.25,59.2,42.91,44.53,59.77,61.39H28.25Zm27.6-12.37a5.18,5.18,0,1,0-5.17-5.17h0a5.18,5.18,0,0,0,5.17,5.17Zm0-7.61a2.44,2.44,0,1,1-2.44,2.44,2.43,2.43,0,0,1,2.44-2.44ZM25.52,68.58a1.36,1.36,0,0,1,1.36-1.37h11.9a1.37,1.37,0,0,1,0,2.74H26.88a1.38,1.38,0,0,1-1.36-1.38h0Zm24,0a1.37,1.37,0,0,1-1.37,1.36H45a1.37,1.37,0,1,1,0-2.73h3.12a1.38,1.38,0,0,1,1.37,1.36Z"/></g></g></g></svg>