<svg xmlns="http://www.w3.org/2000/svg" viewBox="0 0 45.35 45.35"><defs><style>.cls-1{fill:none;}.cls-2{fill-rule:evenodd;}</style></defs><g id="Layer_2" data-name="Layer 2"><g id="Layer_1-2" data-name="Layer 1"><rect class="cls-1" width="45.35" height="45.35"/><path class="cls-2" d="M19.9,9.27l-.34.67a6.13,6.13,0,0,1-5.48,3.39H11.3v4.48h1.23a4.87,4.87,0,0,1,0,9.73H11.3V32h4.82a6.11,6.11,0,0,1,5.45,3.35l.35.7h1.53l.32-.64A6.09,6.09,0,0,1,29.28,32h4.78V27.54H32.83a4.87,4.87,0,1,1,0-9.73h1.23V13.33H31.3a6.13,6.13,0,0,1-5.47-3.39l-.34-.67Z"/></g></g></svg>