<svg xmlns="http://www.w3.org/2000/svg" viewBox="0 0 45.35 45.35"><defs><style>.cls-1{fill:none;}</style></defs><g id="Layer_2" data-name="Layer 2"><g id="Layer_1-2" data-name="Layer 1"><rect class="cls-1" width="45.35" height="45.35"/><path d="M24.32,37.5l-3.27,0L20.31,36a4.68,4.68,0,0,0-4.19-2.58H9.88V26.13h2.65a3.45,3.45,0,0,0,0-6.9H9.88V11.91h4.2a4.68,4.68,0,0,0,4.21-2.6L19,7.85h7.35l.73,1.46a4.68,4.68,0,0,0,4.2,2.6h4.17v7.32H32.83a3.45,3.45,0,0,0,0,6.9h2.64v7.31H29.28A4.69,4.69,0,0,0,25,36.07ZM12.71,30.61h3.41a7.51,7.51,0,0,1,6.57,3.85,7.48,7.48,0,0,1,6.59-3.85h3.36V29a6.28,6.28,0,0,1,0-12.56V14.75H31.3a7.5,7.5,0,0,1-6.68-4.06H20.77a7.5,7.5,0,0,1-6.69,4.06H12.71V16.4a6.28,6.28,0,0,1,0,12.56Z"/></g></g></svg>