<svg xmlns="http://www.w3.org/2000/svg" viewBox="0 0 17.01 17.01"><g data-name="Layer 2"><g data-name="Layer 1"><path fill="#f6f6f6" d="M0 0h17.01v17.01H0z"/><path d="M6.72 7.55H7l1.67-4.72 3.64 8.58c.24.59.64.71 1.21.36l-.8 2a1.43 1.43 0 01-1.26-.3 4.29 4.29 0 01-.74-1.22l-.6-1.35H7l-.31.9.31.2a1.77 1.77 0 001.71 0l-1.36 2.12a2.61 2.61 0 00-1.91-.8 2.55 2.55 0 00-1.95.85 2.26 2.26 0 01.36-1.41 2.14 2.14 0 011.57-1c.21-.58.41-1.14.61-1.68s.39-1.07.57-1.58a1.63 1.63 0 00-1.31.51.46.46 0 010-.14c-.02-.87.46-1.32 1.43-1.32zm.62 2.37h2.34L8.4 7z" fill="#231f20"/></g></g></svg>