<svg xmlns="http://www.w3.org/2000/svg" viewBox="0 0 45.35 45.35"><defs><style>.cls-1{fill:none;}.cls-2{fill-rule:evenodd;}</style></defs><g id="Layer_2" data-name="Layer 2"><g id="Layer_1-2" data-name="Layer 1"><rect class="cls-1" width="45.35" height="45.35"/><path d="M22.68,26.91h1.13l-1.13-4.58-1.14,4.58Zm0-19.74h4.25v5.5h-1L31,32.76h1.11v5.42H23.93V32.76h1.34l-.42-1.7H20.5l-.42,1.7h1.35v5.42h-8.2V32.76h1.12l5.11-20.09h-1V7.17Z"/><polygon class="cls-2" points="37.67 13.4 38.15 17.56 42.11 18.89 38.31 20.63 38.27 24.8 35.44 21.73 31.45 22.98 33.51 19.34 31.09 15.93 35.18 16.76 37.67 13.4"/><polygon class="cls-2" points="7.68 13.4 7.2 17.56 3.24 18.89 7.04 20.63 7.08 24.8 9.91 21.73 13.9 22.98 11.85 19.34 14.27 15.93 10.17 16.76 7.68 13.4"/></g></g></svg>