<svg xmlns="http://www.w3.org/2000/svg" viewBox="0 0 45.35 45.35"><defs><style>.cls-1{fill:none;}</style></defs><g id="Layer_2" data-name="Layer 2"><g id="Layer_1-2" data-name="Layer 1"><rect class="cls-1" width="45.35" height="45.35"/><path d="M33.4,39.46H12v-8h1.4L17.82,14h-.67v-8H28.2v8h-.67L32,31.48h1.4Zm-8.2-2.55h5.65V34H30L24.25,11.4h1.4v-3H19.7v3h1.41L15.34,34h-.83v2.88h5.64V34h-1.7l1.06-4.24h6.34L26.91,34H25.2Zm.24-8.73H19.91L22.68,17Z"/><path d="M39.31,27.5l-4.19-4.56L29.21,24.8l3-5.4-3.59-5,6.07,1.22,3.69-5,.71,6.15,5.87,2-5.63,2.57Zm-3.54-7,1.46,1.59,0-2.16,2-.9-2-.69-.25-2.15-1.29,1.74-2.12-.43,1.25,1.76L33.7,21.16Z"/><path d="M6.05,27.5,6,21.31.36,18.74l5.87-2,.7-6.15,3.69,5,6.07-1.22-3.59,5,3,5.4-5.91-1.86ZM6.13,19l2,.9,0,2.16,1.47-1.59,2.06.65-1.06-1.89,1.25-1.76-2.12.43L8.43,16.2l-.25,2.15Z"/></g></g></svg>