<svg xmlns="http://www.w3.org/2000/svg" viewBox="0 0 17.01 17.01"><g data-name="Layer 2"><g data-name="Layer 1"><path fill="#f6f6f6" d="M0 0h17.01v17.01H0z"/><path d="M4 13.45a.78.78 0 010-.24l.18-.43c.1-.24.22-.55.38-.93s.35-.79.57-1.24a3.18 3.18 0 01-.83-.12 1.16 1.16 0 01-.37-.23.41.41 0 01-.16-.3.3.3 0 01.09-.24.34.34 0 01.14-.09l.3-.05.45-.05 1.07-.16c.14-.2.25-.4.36-.58s.4-.67.89-1.47S8 6 8.17 5.69s.43-.59.64-.86.4-.51.58-.72a7.82 7.82 0 01.55-.6 3.31 3.31 0 01.65-.51 1.35 1.35 0 01.66-.2 3.69 3.69 0 01.65.07 2.34 2.34 0 01.63.21 1.71 1.71 0 01.5.37.72.72 0 01.2.51 2.3 2.3 0 010 .33.76.76 0 010 .11l-2.16 4.41a1.93 1.93 0 01.62.09 1.27 1.27 0 01.34.2.36.36 0 01.16.31.37.37 0 01-.08.22.35.35 0 01-.19.12l-1.35.17a12.66 12.66 0 00-.6 2 2.68 2.68 0 000 1c.07.23.31.19.74-.13a5.82 5.82 0 001.17-1.24v1a11.12 11.12 0 01-1.43 1.34 1.42 1.42 0 01-.75.25 1.4 1.4 0 01-.6-.12 1.33 1.33 0 01-.43-.35 1.73 1.73 0 01-.25-.51 3.63 3.63 0 01-.08-.95 8.36 8.36 0 01.47-2.11c-.47 0-1.05.11-1.76.2a1.82 1.82 0 00-.16.29c0 .07-.1.23-.21.46s-.21.49-.33.75-.23.51-.33.75l-.24.56c-.06.14-.11.26-.14.35l-.1.25a1.84 1.84 0 00-.06.18.77.77 0 01-.21.2.7.7 0 01-.28.05 1 1 0 01-.32-.05 1.22 1.22 0 01-.33-.09.92.92 0 01-.26-.22.49.49 0 01-.08-.33zm3.64-4.3c.72-.05 1.26-.1 1.61-.16l2.57-5.1a.54.54 0 00-.14-.08c-.08 0-.23 0-.43.19a6.57 6.57 0 00-.78.76c-.31.35-.56.64-.74.88l-.41.59-.51.77c-.23.38-.41.69-.54.92s-.27.48-.35.68-.21.4-.31.55z" fill="#231f20"/></g></g></svg>