<svg xmlns="http://www.w3.org/2000/svg" viewBox="0 0 45.35 45.35"><defs><style>.cls-1{fill:none;}.cls-2{fill-rule:evenodd;}</style></defs><g id="Layer_2" data-name="Layer 2"><g id="Layer_1-2" data-name="Layer 1"><rect class="cls-1" width="45.35" height="45.35"/><path class="cls-2" d="M33.43,21.63h3.76a2,2,0,0,1,2,2.06v7.71a2.06,2.06,0,0,1-.6,1.46,2,2,0,0,1-1.46.61H19.77A26.3,26.3,0,0,1,13,32.62a12.5,12.5,0,0,1-5.05-2.51,4.72,4.72,0,0,1-1.75-3.45v-9a4.31,4.31,0,0,1,.51-2A5.16,5.16,0,0,1,8,14.1a12.56,12.56,0,0,1,5-2.48,26,26,0,0,1,6.82-.86,25.83,25.83,0,0,1,6.75.86,13.13,13.13,0,0,1,5.1,2.49,5.44,5.44,0,0,1,1.25,1.56,4.73,4.73,0,0,1,.53,1.9v4.06ZM13,21.75h0a1.43,1.43,0,0,1,1.42,1.43v6.66a.93.93,0,0,1,0,.23c.68.16,1.4.28,2.15.38V27.68A1.44,1.44,0,0,1,18,26.25h0a1.43,1.43,0,0,1,1.42,1.43v3h2.39a1.49,1.49,0,0,1,0-.21V25a1.43,1.43,0,0,1,1.43-1.42h0A1.43,1.43,0,0,1,24.61,25v5.46a1.48,1.48,0,0,1,0,.21h2.64V27.8a1.43,1.43,0,0,1,1.43-1.42h0A1.43,1.43,0,0,1,30.1,27.8v2.84h6.27V24.47H30.6V17.65a1.93,1.93,0,0,0-.2-.67,2.58,2.58,0,0,0-.61-.73,10.32,10.32,0,0,0-4-1.91,23.09,23.09,0,0,0-6-.74,23.06,23.06,0,0,0-6.07.75,9.59,9.59,0,0,0-3.89,1.87l-.1.08a2.12,2.12,0,0,0-.57.67h0a1.45,1.45,0,0,0-.18.69v8.93a1.82,1.82,0,0,0,.21.72,2,2,0,0,0,.52.64L9.8,28a7.31,7.31,0,0,0,1.76,1.12V23.18A1.43,1.43,0,0,1,13,21.75Zm6.86-6.36c3.37,0,6.11,1,6.11,2.26s-2.74,2.27-6.11,2.27-6.11-1-6.11-2.27S16.48,15.39,19.85,15.39Z"/></g></g></svg>