<svg xmlns="http://www.w3.org/2000/svg" viewBox="0 0 45.35 45.35"><defs><style>.cls-1{fill:none;}.cls-2{fill-rule:evenodd;}</style></defs><g id="Layer_2" data-name="Layer 2"><g id="Layer_1-2" data-name="Layer 1"><rect class="cls-1" width="45.35" height="45.35"/><path class="cls-2" d="M33,13.93c2.57,6,3.39,14.16,3.22,20.59h-2c-.15-4.77-.45-10.81-2.21-15.24Zm-20.56,0C9.82,20,9,28.09,9.17,34.52h2c.15-4.77.45-10.81,2.2-15.24ZM26.09,26.42h0a1,1,0,0,0,0,1.38l3.45,3.44a.62.62,0,0,0,.18.14v1.81H23.94l-.22-20.12A4,4,0,0,0,26.64,11a38,38,0,0,1,4.58,1.31l-1.47,7.59a1.6,1.6,0,0,0,0,.3c0,2.69,0,5.63,0,8.5l-2.24-2.24A1,1,0,0,0,26.09,26.42Zm-6.83,0h0a1,1,0,0,1,0,1.38l-3.44,3.44a1.1,1.1,0,0,1-.18.14v1.81h5.78l.22-20.12A4,4,0,0,1,18.72,11a37.5,37.5,0,0,0-4.58,1.31l1.47,7.59c0,.1,0,.21,0,.3,0,2.69,0,5.63,0,8.5l2.23-2.24A1,1,0,0,1,19.26,26.42Zm3.41-19a8.54,8.54,0,0,0-2.32.27A2.44,2.44,0,0,0,19,8.62c-2,.47-4.86,1-6.75,2.15-.14.08-.27.18-.33.22C7.44,18.81,7.19,28.62,7.59,37.06a.92.92,0,0,0,.87.84h3.29a.92.92,0,0,0,.87-.89,62.39,62.39,0,0,1,1-11.11c0,2.21,0,4.42,0,8.47A2.26,2.26,0,0,0,14.12,36a2.19,2.19,0,0,0,1.59.59c4.85,0,9.77,0,13.92,0a2.2,2.2,0,0,0,1.6-.59,2.25,2.25,0,0,0,.57-1.61c0-4.2,0-6.1,0-8.41a62.55,62.55,0,0,1,.94,11,.91.91,0,0,0,.87.89H36.9a.92.92,0,0,0,.87-.84c.39-8.44.14-18.25-4.32-26.07a1.89,1.89,0,0,0-.33-.22A29.58,29.58,0,0,0,26.35,8.6,2.41,2.41,0,0,0,25,7.73,8.74,8.74,0,0,0,22.67,7.46Z"/></g></g></svg>