<svg xmlns="http://www.w3.org/2000/svg" viewBox="0 0 45.35 45.35"><defs><style>.cls-1{fill:none;}.cls-2{fill-rule:evenodd;}</style></defs><g id="Layer_2" data-name="Layer 2"><g id="Layer_1-2" data-name="Layer 1"><rect class="cls-1" width="45.35" height="45.35"/><path class="cls-2" d="M26.76,10.41a33.31,33.31,0,0,1,4.67,1.33l.44.18-1.56,8a1.36,1.36,0,0,0,0,.21c0,3,0,6.05,0,9.07l-2.8-2.81a1,1,0,0,0-1.38,0h0a1,1,0,0,0,0,1.38L30.29,32v1.77H23.66L23.44,12.6l.47-.08c1.35-.25,1.51-.81,2.27-1.88l.21-.31ZM12.62,12l1.32,7.38-.06.15c-1.75,4.42-2,10.31-2.17,15.05v.55H8.62v-.56c-.18-6.62.65-14.7,3.27-20.82Zm20.86,1.75c2.61,6.12,3.45,14.2,3.27,20.82l0,.56H33.66l0-.55c-.15-4.74-.41-10.63-2.16-15l-.06-.15L32.73,12ZM8.73,35.83h2.86v1a1,1,0,0,1-1,1H9.77a1,1,0,0,1-1-1Zm25,0h2.86v1a1,1,0,0,1-1,1H34.8a1,1,0,0,1-1-1Zm-18.63-1H30.25v.57a1.14,1.14,0,0,1-1.14,1.14H16.24a1.14,1.14,0,0,1-1.13-1.14v-.55A0,0,0,0,1,15.13,34.8Zm7.54-26A6.21,6.21,0,0,0,21,9a1.75,1.75,0,0,0-1,.65h0a2.63,2.63,0,0,0,2.73,1.86A2.62,2.62,0,0,0,25.4,9.62h0a1.71,1.71,0,0,0-1-.64A6.24,6.24,0,0,0,22.67,8.77Zm-3.49,1.87c.76,1.07.91,1.63,2.27,1.88l.47.08-.23,21.16H15.06V32l4.19-4.19a1,1,0,0,0,0-1.38h0a1,1,0,0,0-1.38,0l-2.8,2.8c0-3,0-6,0-9.07a1.15,1.15,0,0,0,0-.19l-1.56-8,.44-.18a33.57,33.57,0,0,1,4.66-1.33l.37-.08Z"/></g></g></svg>