<svg xmlns="http://www.w3.org/2000/svg" viewBox="0 0 17.01 17.01"><g data-name="Layer 2"><g data-name="Layer 1"><path fill="#f6f6f6" d="M0 0h17.01v17.01H0z"/><path d="M12 13.41a.74.74 0 01-.35.66.92.92 0 01-.44.1 1 1 0 01-.76-.31.71.71 0 01-.6.31H9.6a.66.66 0 01-.56-.56 2.07 2.07 0 00.49-1.4v-.28l-.03-.33-.16-.55H7.56l-.12.76v.4a1.79 1.79 0 00.52 1.33c0 .42-.3.63-.77.63a.81.81 0 01-.7-.36 1 1 0 01-.62.35h-.15a.72.72 0 01-.72-.54 2.42 2.42 0 00.75-1c0-.07.09-.28.18-.62a1.27 1.27 0 000-.32l.21-1.34v-.98A1.36 1.36 0 006 8.54a1.2 1.2 0 00.45-.78l.47-3.26a1.26 1.26 0 00-.41-1 1 1 0 01.85-.68 1.11 1.11 0 01.93.41 1 1 0 01.84-.41h.25a1 1 0 01.75.44l-.22.36a1.5 1.5 0 00-.25.79v.15l.49 2.85a1.48 1.48 0 00.67 1 1.49 1.49 0 00-.28.91 2.18 2.18 0 00.07.48l.52 2.28a2 2 0 00.87 1.33zM9 9.55l-.7-4.19-.56 4.19z" fill="#231f20"/></g></g></svg>