<svg xmlns="http://www.w3.org/2000/svg" viewBox="0 0 17.01 17.01"><defs><style>.cls-1{fill:none;}</style></defs><g id="Layer_2" data-name="Layer 2"><g id="Layer_1-2" data-name="Layer 1"><rect class="cls-1" width="17.01" height="17.01"/><path d="M11.82,14.63c-.89-.6-1.08-.91-1.14-2.33L7.74,14.63a14.21,14.21,0,0,0-2.13-1.31,3.58,3.58,0,0,0-1.28-.42.4.4,0,0,0-.39.37c0,.12,0,.19.21.45a.82.82,0,0,1,.16.44.43.43,0,0,1-.44.42.71.71,0,0,1-.61-.76c0-.47.18-.82.91-1.89l1.26-1.82A4.34,4.34,0,0,1,3.21,6.56,4.4,4.4,0,0,1,7.66,2.38,6,6,0,0,1,10.18,3a9.17,9.17,0,0,1,1.22.77,4.67,4.67,0,0,1,1.82-1.31l.19.28A2.06,2.06,0,0,0,12.07,5c0,.16,0,.47,0,.63l.28,5.93a4.09,4.09,0,0,0,.14,1.19.5.5,0,0,0,.37.3c.16,0,.3-.09.65-.39l.28.3ZM7.08,6a1.35,1.35,0,0,0-1.21.7l-.3-.13A2.05,2.05,0,0,1,7.62,4.9a4.81,4.81,0,0,1,1.31.19l.49-.72A4,4,0,0,0,7.3,3.81a3.16,3.16,0,0,0-3.43,3,3.69,3.69,0,0,0,1.83,3L8.07,6.32A1.66,1.66,0,0,0,7.08,6ZM5.64,10.45l-.68,1,4,1.68,1.7-1.31-.06-1.36ZM9.76,4.58,6.5,9.22h4L10.33,5A3.48,3.48,0,0,0,9.76,4.58Z"/></g></g></svg>