<svg xmlns="http://www.w3.org/2000/svg" viewBox="0 0 17.01 17.01"><defs><style>.cls-1{fill:none;}</style></defs><g id="Layer_2" data-name="Layer 2"><g id="Layer_1-2" data-name="Layer 1"><rect class="cls-1" width="17.01" height="17.01"/><path d="M7.05,4.65a2.16,2.16,0,0,0,.06-.43c0-.41-.12-.78-.74-.78H6.13V2.25H6.7c1.07,0,1.46.17,1.78.8.29-.59.78-.8,1.7-.8h.72V3.44h-.26a.67.67,0,0,0-.7.76,1.71,1.71,0,0,0,0,.45l.74,3.28c.47,0,.69.23.69.59a.53.53,0,0,1-.47.56l.72,3.26c.18.8.51,1.23,1.19,1.23h.29v1.18H12.6c-1,0-1.51-.14-1.78-.82-.27.6-.86.82-1.72.82H8.48V13.57h.23c.7,0,.9-.33.9-.74a3.77,3.77,0,0,0-.06-.49l-.21-1.05H6.89l-.21,1.05a2.69,2.69,0,0,0-.06.53c0,.39.16.7.53.7h.39v1.18H6.82a1,1,0,0,1-1.06-.82,1.26,1.26,0,0,1-1.35.82H3.87V13.57H4.1c.8,0,1.08-.35,1.27-1.23l.72-3.26a.56.56,0,0,1-.48-.56c0-.34.27-.59.72-.59Zm2,5.41L8.14,5.8H8.07l-.92,4.26Z"/></g></g></svg>