<svg xmlns="http://www.w3.org/2000/svg" viewBox="0 0 17.01 17.01"><defs><style>.cls-1{fill:none;}</style></defs><g id="Layer_2" data-name="Layer 2"><g id="Layer_1-2" data-name="Layer 1"><rect class="cls-1" width="17.01" height="17.01"/><path d="M1.23,13.41c0-.12.1-.18.22-.2C3.09,13,4.53,11.05,5.64,9.75L8.55,6.3c1.53-1.83,3.28-3.71,5.71-3.71a4.28,4.28,0,0,1,1.38.23.18.18,0,0,1,.14.27l-3.59,7.69c-.52,1.11-.48,1.76-.07,1.76.58,0,1.77-1,2.53-2.57.15-.33.8-.06.63.3-1,2.09-2.86,3.65-4.45,3.65-1.34,0-2-1-.8-3.51H6.57l-.12.15c-1.4,1.65-3.15,3.85-4.37,3.85A.79.79,0,0,1,1.23,13.41Zm9.22-3.9,2.76-5.88a7.86,7.86,0,0,0-3.06,2.52L7.33,9.51Z"/></g></g></svg>