<svg xmlns="http://www.w3.org/2000/svg" viewBox="0 0 26.93 26.93"><defs><style>.cls-1{fill:none;}.cls-2{fill:#fff;}</style></defs><g id="Layer_2" data-name="Layer 2"><g id="Layer_1-2" data-name="Layer 1"><rect class="cls-1" width="26.93" height="26.93"/><path class="cls-2" d="M17.69,12a5.47,5.47,0,0,0,1.82-2h0a5.37,5.37,0,0,0,5.36-5.36V2.74a.52.52,0,0,0-.52-.52H20.23v-1h1a.52.52,0,0,0,.52-.52.52.52,0,0,0-.52-.52H15.81a.52.52,0,0,0-.52.52.52.52,0,0,0,.52.52h3.38v6a4.66,4.66,0,0,1-2.07,3.92c-1.46,1-2.61,1.71-2.61,3.8V19a.52.52,0,0,0,.52.52,2.62,2.62,0,0,1,2.55,2.08H9.35A2.62,2.62,0,0,1,11.9,19.5a.52.52,0,0,0,.52-.52V14.93c0-2.09-1.17-2.86-2.54-3.75a4.74,4.74,0,0,1-2.14-4v-6h3.38a.52.52,0,0,0,.52-.52.52.52,0,0,0-.52-.52H5.66a.52.52,0,0,0-.52.52.52.52,0,0,0,.52.52h1v1H2.53A.52.52,0,0,0,2,2.74V4.67A5.37,5.37,0,0,0,7.37,10h.06a5.87,5.87,0,0,0,1.88,2c1.44.94,2.07,1.42,2.07,2.88V18.5A3.65,3.65,0,0,0,8.3,21.58H7.74a.52.52,0,0,0-.52.53v4.16a.52.52,0,0,0,.52.52H19.19a.52.52,0,0,0,.52-.52V22.11a.52.52,0,0,0-.52-.53h-.56a3.65,3.65,0,0,0-3.08-3.08V14.93c0-1.47.62-1.93,2.14-2.93Zm6.19-8.74V4.67A4.33,4.33,0,0,1,20,9a5.83,5.83,0,0,0,.27-1.76V3.26ZM3.05,4.67V3.26H6.7v4A5.83,5.83,0,0,0,7,9a4.32,4.32,0,0,1-3.92-4.3ZM18.67,25.75H8.26V22.63H18.67Z"/><path class="cls-2" d="M10.42,5.43a.51.51,0,0,0-.42.35.52.52,0,0,0,.13.53l1.28,1.26-.29,1.78a.49.49,0,0,0,.2.5.5.5,0,0,0,.55,0l1.59-.82,1.6.82a.5.5,0,0,0,.55,0,.49.49,0,0,0,.2-.5l-.29-1.78L16.8,6.31a.52.52,0,0,0,.13-.53.51.51,0,0,0-.42-.35l-1.78-.27-.8-1.61a.52.52,0,0,0-.93,0l-.81,1.61ZM13,5.87,13.46,5l.46.92a.54.54,0,0,0,.39.28l1,.15L14.6,7a.52.52,0,0,0-.15.46l.17,1L13.7,8A.48.48,0,0,0,13.46,8a.53.53,0,0,0-.24.06l-.91.47.17-1A.52.52,0,0,0,12.33,7L11.6,6.3l1-.15A.56.56,0,0,0,13,5.87Z"/><path class="cls-2" d="M15,23.67H11.9a.52.52,0,0,0-.52.52.53.53,0,0,0,.52.52H15a.53.53,0,0,0,.52-.52.52.52,0,0,0-.52-.52Z"/><path class="cls-2" d="M14,.66a.53.53,0,0,1-1.05,0A.53.53,0,0,1,14,.66Z"/></g></g></svg>