<svg xmlns="http://www.w3.org/2000/svg" viewBox="0 0 26.93 26.93"><defs><style>.cls-1{fill:none;}.cls-2{fill:#fff;}</style></defs><g id="Layer_2" data-name="Layer 2"><g id="Layer_1-2" data-name="Layer 1"><rect class="cls-1" width="26.93" height="26.93"/><path class="cls-2" d="M1.7,19.71a2.08,2.08,0,0,0,2.08,2.08,2.05,2.05,0,0,0,1.57-.71l6.08,3.18a2.3,2.3,0,0,0,0,.45,2.09,2.09,0,0,0,4.17,0,2.3,2.3,0,0,0-.05-.45l6.08-3.18a2.05,2.05,0,0,0,1.57.71,2.08,2.08,0,0,0,.52-4.1V15.81a.52.52,0,0,0-.52-.52.52.52,0,0,0-.52.52v1.88a2.11,2.11,0,0,0-.88.48l-3.68-2.28a5.2,5.2,0,0,0,0-4.85l3.68-2.28a2,2,0,0,0,.88.47v1.89a.52.52,0,0,0,.52.52.52.52,0,0,0,.52-.52V9.23a2.08,2.08,0,1,0-2.09-3.39L15.5,2.67a2.3,2.3,0,0,0,.05-.45,2.09,2.09,0,0,0-4.17,0,2.3,2.3,0,0,0,0,.45L5.35,5.84A2.08,2.08,0,1,0,3.26,9.23v8.46a2.1,2.1,0,0,0-1.56,2Zm2.08,1a1,1,0,1,1,1-1,1,1,0,0,1-1,1Zm1.4-12L8.86,11a5.2,5.2,0,0,0,0,4.85L5.18,18.17a2.11,2.11,0,0,0-.88-.48V9.23a2,2,0,0,0,.88-.47Zm7.76-4.52v4a5.18,5.18,0,0,0-3.51,1.88L5.75,7.89a1.92,1.92,0,0,0,.11-.67,2.28,2.28,0,0,0,0-.45L11.9,3.59a2.12,2.12,0,0,0,1,.65ZM15,3.59l6.08,3.18a2.3,2.3,0,0,0-.05.45,1.93,1.93,0,0,0,.12.67L17.5,10.17A5.18,5.18,0,0,0,14,8.29v-4a2.12,2.12,0,0,0,1-.65Zm6.08,16.56L15,23.33a2.18,2.18,0,0,0-1-.64V18.64a5.21,5.21,0,0,0,3.51-1.88L21.18,19a1.93,1.93,0,0,0-.12.67,2.12,2.12,0,0,0,.05.44ZM11.9,23.33,5.82,20.15a2.12,2.12,0,0,0,0-.44A1.92,1.92,0,0,0,5.75,19l3.68-2.28a5.19,5.19,0,0,0,3.51,1.88v4.05a2.18,2.18,0,0,0-1,.64Zm1.56-5.7a4.12,4.12,0,0,1-2-.52,2.08,2.08,0,0,1,4,0,4.13,4.13,0,0,1-2,.52Zm2.9-1.17a3.12,3.12,0,0,0-5.79,0,4.17,4.17,0,1,1,5.79,0Zm-2.9,9.29a1,1,0,1,1,1-1,1,1,0,0,1-1,1Zm9.69-7.08a1,1,0,1,1-1,1,1,1,0,0,1,1-1Zm0-12.49a1,1,0,1,1-1,1,1,1,0,0,1,1-1Zm-9.69-5a1,1,0,1,1-1,1,1,1,0,0,1,1-1Zm-10.72,6a1,1,0,1,1,1,1,1,1,0,0,1-1-1Z"/><path class="cls-2" d="M15.55,12.42a2.09,2.09,0,1,0-2.09,2.09,2.09,2.09,0,0,0,2.09-2.09Zm-2.09,1a1,1,0,1,1,1-1,1,1,0,0,1-1,1Z"/><path class="cls-2" d="M23.67,13.46a.53.53,0,0,1-.52.53.53.53,0,1,1,.52-.53Z"/></g></g></svg>