<svg xmlns="http://www.w3.org/2000/svg" viewBox="0 0 26.93 26.93"><defs><style>.cls-1{fill:none;}.cls-2{fill:#fff;}</style></defs><g id="Layer_2" data-name="Layer 2"><g id="Layer_1-2" data-name="Layer 1"><rect class="cls-1" width="26.93" height="26.93"/><path class="cls-2" d="M17.11,10.34a.52.52,0,0,1-.52.52.52.52,0,0,1,0-1,.52.52,0,0,1,.52.52Zm4.6,6.84-2.87,1.9A2.09,2.09,0,0,0,17,18H14.5c-.54,0-.8-.39-1.05-.58a5.26,5.26,0,0,0-6.87,0L6,17.94H.66a.52.52,0,0,0-.52.52V24.7a.52.52,0,0,0,.52.52h5.4l9.33,1.56a.53.53,0,0,0,.39-.09l10.8-7.87a.51.51,0,0,0,.11-.72,3.66,3.66,0,0,0-5-.92Zm-6.36,8.54L6.19,24.19h-5V19h5c.31,0,.4-.23,1-.73a4.22,4.22,0,0,1,5.5,0,2.54,2.54,0,0,0,1.74.83H17a1,1,0,1,1,0,2H10.79a.52.52,0,0,0-.52.52.52.52,0,0,0,.52.52H17a2.07,2.07,0,0,0,2.08-2l3.16-2.09a2.63,2.63,0,0,1,3.22.27ZM10.29,12.94H22.78a.52.52,0,0,0,.52-.52v-2l1.58-8.07a.52.52,0,0,0-.8-.53L19.83,4.62,17,.37a.52.52,0,0,0-.86,0L13.29,4.62,9,1.79a.52.52,0,0,0-.8.53l1.53,8.07v2a.52.52,0,0,0,.52.52Zm2.86-7.16a.52.52,0,0,0,.72-.15l2.69-4,2.69,4a.52.52,0,0,0,.72.15l3.65-2.43L22.35,9.82H18.93a.52.52,0,0,0,0,1h3.33v1H10.81v-1h3.44a.52.52,0,0,0,0-1H10.72L9.49,3.34Z"/></g></g></svg>