<svg xmlns="http://www.w3.org/2000/svg" viewBox="0 0 26.93 26.93"><defs><style>.cls-1{fill:none;}.cls-2{fill:#fff;}</style></defs><g id="Layer_2" data-name="Layer 2"><g id="Layer_1-2" data-name="Layer 1"><rect class="cls-1" width="26.93" height="26.93"/><path class="cls-2" d="M15.3.05a.52.52,0,1,0,0,1A10.43,10.43,0,0,1,25.72,11.51a.52.52,0,0,0,.52.52.52.52,0,0,0,.52-.52A11.47,11.47,0,0,0,15.3.05Z"/><path class="cls-2" d="M15.3,3.18a.52.52,0,0,0-.52.52.53.53,0,0,0,.52.52,7.3,7.3,0,0,1,7.3,7.29.52.52,0,0,0,1,0A8.35,8.35,0,0,0,15.3,3.18Z"/><path class="cls-2" d="M19.47,11.51A.52.52,0,0,0,20,12a.52.52,0,0,0,.52-.52A5.21,5.21,0,0,0,15.3,6.3a.53.53,0,0,0-.52.52.52.52,0,0,0,.52.52,4.17,4.17,0,0,1,4.17,4.17Z"/><path class="cls-2" d="M14.78,10a.52.52,0,0,0,.52.52,1,1,0,0,1,1.05,1,.52.52,0,0,0,.52.52.52.52,0,0,0,.52-.52A2.09,2.09,0,0,0,15.3,9.43a.52.52,0,0,0-.52.52Z"/><path class="cls-2" d="M10.09,16.8a.52.52,0,0,1-.52.52.52.52,0,0,1,0-1,.52.52,0,0,1,.52.52Z"/><path class="cls-2" d="M18.61,17.37a1.55,1.55,0,0,0-2.2,0L14.7,19.08a1.14,1.14,0,0,1-1.33.13A19.61,19.61,0,0,1,11.64,18a.51.51,0,0,0-.73.08.52.52,0,0,0,.07.73,19.74,19.74,0,0,0,1.83,1.32,2.17,2.17,0,0,0,2.62-.26l1.71-1.71a.51.51,0,0,1,.74,0l4,4a.52.52,0,0,1,0,.73L20.4,24.39a4.17,4.17,0,0,1-4.69.83A28.62,28.62,0,0,1,1.57,11a4.13,4.13,0,0,1,.86-4.63L3.92,4.88a.52.52,0,0,1,.73,0l4,4a.53.53,0,0,1,0,.74L7,11.37A2.17,2.17,0,0,0,6.72,14c.29.45.61.9.93,1.33a.52.52,0,0,0,.73.1.52.52,0,0,0,.1-.73c-.31-.41-.61-.83-.89-1.26a1.13,1.13,0,0,1,.13-1.33l1.71-1.71a1.55,1.55,0,0,0,0-2.2l-4-4a1.55,1.55,0,0,0-2.2,0L1.69,5.63A5.18,5.18,0,0,0,.63,11.44,29.75,29.75,0,0,0,15.28,26.17a5.25,5.25,0,0,0,5.86-1l1.51-1.51a1.56,1.56,0,0,0,0-2.21Z"/></g></g></svg>