<svg xmlns="http://www.w3.org/2000/svg" viewBox="0 0 26.93 26.93"><defs><style>.cls-1{fill:none;}.cls-2{fill:#fff;}</style></defs><g id="Layer_2" data-name="Layer 2"><g id="Layer_1-2" data-name="Layer 1"><rect class="cls-1" width="26.93" height="26.93"/><path class="cls-2" d="M2.76,13.46A.51.51,0,0,0,2.24,13H.68a.52.52,0,0,0,0,1H2.24a.52.52,0,0,0,.52-.52Z"/><path class="cls-2" d="M5.88,16.58a.52.52,0,0,0-.52-.52H2.24a.53.53,0,0,0-.52.52.52.52,0,0,0,.52.52H5.36a.52.52,0,0,0,.52-.52Z"/><path class="cls-2" d="M5.36,10.87a.52.52,0,0,0,.52-.52.52.52,0,0,0-.52-.52H2.24a.52.52,0,0,0-.52.52.53.53,0,0,0,.52.52Z"/><path class="cls-2" d="M17.1,13.46a.52.52,0,0,1-.52.52.52.52,0,1,1,0-1,.51.51,0,0,1,.52.51Z"/><path class="cls-2" d="M26.47,13,7.15,3.65a.52.52,0,0,0-.72.63L8.57,10.7,5.07,13a.53.53,0,0,0,0,.87l3.5,2.33L6.43,22.65a.52.52,0,0,0,.15.56.53.53,0,0,0,.57.07l19.32-9.35a.51.51,0,0,0,0-.93ZM6.3,13.46l2.61-1.74.58,1.74-.58,1.75Zm4.11.52h3.83a.52.52,0,1,0,0-1H10.41L7.8,5.12,24,13H18.92a.52.52,0,1,0,0,1H24L7.8,21.81Z"/></g></g></svg>