<svg xmlns="http://www.w3.org/2000/svg" viewBox="0 0 62 62.06"><defs><style>.cls-1{fill:none;}.cls-2{fill:#272727;}.cls-3{fill:#436aad;}.cls-4{fill:#dc4b43;}</style></defs><title>calendar-icon</title><g id="Layer_2" data-name="Layer 2"><g id="Capa_1" data-name="Capa 1"><rect class="cls-1" width="62" height="62.06"/><rect class="cls-2" x="6.32" y="15.91" width="54.16" height="40.23"/><path class="cls-3" d="M61.5,57.16H5.3V14.9H61.5Zm-54.16-2H59.47V16.93H7.34Z"/><rect class="cls-2" x="1.52" y="11.11" width="54.16" height="40.23"/><path class="cls-3" d="M56.7,52.36H.5V10.09H56.7Zm-54.17-2H54.66V12.13H2.53Z"/><line class="cls-2" x1="8.17" y1="5.92" x2="8.17" y2="16.81"/><path class="cls-3" d="M8.17,17.82a1,1,0,0,1-1-1V5.92a1,1,0,0,1,2,0V16.81A1,1,0,0,1,8.17,17.82Z"/><line class="cls-2" x1="16.34" y1="5.92" x2="16.34" y2="16.81"/><path class="cls-3" d="M16.34,17.82a1,1,0,0,1-1-1V5.92a1,1,0,0,1,2,0V16.81A1,1,0,0,1,16.34,17.82Z"/><line class="cls-2" x1="24.51" y1="5.92" x2="24.51" y2="16.81"/><path class="cls-3" d="M24.51,17.82a1,1,0,0,1-1-1V5.92a1,1,0,1,1,2,0V16.81A1,1,0,0,1,24.51,17.82Z"/><line class="cls-2" x1="32.68" y1="5.92" x2="32.68" y2="16.81"/><path class="cls-3" d="M32.68,17.82a1,1,0,0,1-1-1V5.92a1,1,0,1,1,2,0V16.81A1,1,0,0,1,32.68,17.82Z"/><line class="cls-2" x1="40.85" y1="5.92" x2="40.85" y2="16.81"/><path class="cls-3" d="M40.85,17.82a1,1,0,0,1-1-1V5.92a1,1,0,1,1,2,0V16.81A1,1,0,0,1,40.85,17.82Z"/><line class="cls-2" x1="49.03" y1="5.92" x2="49.03" y2="16.81"/><path class="cls-3" d="M49,17.82a1,1,0,0,1-1-1V5.92a1,1,0,1,1,2,0V16.81A1,1,0,0,1,49,17.82Z"/><rect class="cls-2" x="16.51" y="21.48" width="5.31" height="5.31"/><path class="cls-4" d="M22.29,27.26H16V21h6.26Zm-5.31-1h4.36V22H17Z"/><rect class="cls-2" x="16.51" y="30.91" width="5.31" height="5.31"/><path class="cls-3" d="M22.29,36.7H16V30.44h6.26Zm-5.31-1h4.36V31.39H17Z"/><rect class="cls-2" x="16.51" y="40.1" width="5.31" height="5.31"/><path class="cls-4" d="M22.29,45.88H16V39.62h6.26Zm-5.31-1h4.36V40.57H17Z"/><rect class="cls-2" x="7.07" y="30.91" width="5.31" height="5.31"/><path class="cls-3" d="M12.85,36.7H6.59V30.44h6.26Zm-5.3-1H11.9V31.39H7.55Z"/><rect class="cls-2" x="7.07" y="40.1" width="5.31" height="5.31"/><path class="cls-3" d="M12.85,45.88H6.59V39.62h6.26Zm-5.3-1H11.9V40.57H7.55Z"/><rect class="cls-2" x="25.94" y="21.48" width="5.31" height="5.31"/><path class="cls-3" d="M31.73,27.26H25.47V21h6.26Zm-5.31-1h4.35V22H26.42Z"/><rect class="cls-2" x="35.38" y="21.48" width="5.31" height="5.31"/><path class="cls-3" d="M41.17,27.26H34.9V21h6.27Zm-5.31-1h4.35V22H35.86Z"/><rect class="cls-2" x="44.82" y="21.48" width="5.31" height="5.31"/><path class="cls-3" d="M50.61,27.26H44.34V21h6.27Zm-5.31-1h4.35V22H45.3Z"/><path class="cls-4" d="M28.18,38.16h1.36a1.68,1.68,0,0,0,1.28-.45,1.82,1.82,0,0,0,.41-1.26,1.67,1.67,0,0,0-.41-1.17,1.6,1.6,0,0,0-1.21-.44,1.67,1.67,0,0,0-1.14.4,1.32,1.32,0,0,0-.47,1H25.66l0,0a2.74,2.74,0,0,1,1.09-2.34A4.27,4.27,0,0,1,29.55,33a4.63,4.63,0,0,1,3,.89,3.1,3.1,0,0,1,1.11,2.56,2.5,2.5,0,0,1-.5,1.49A3.19,3.19,0,0,1,31.79,39a3,3,0,0,1,1.53,1.1,2.86,2.86,0,0,1,.52,1.71,3.14,3.14,0,0,1-1.2,2.61,4.83,4.83,0,0,1-3.09.95,4.72,4.72,0,0,1-2.9-.89A2.84,2.84,0,0,1,25.49,42l0-.05h2.34a1.48,1.48,0,0,0,.5,1.15,1.8,1.8,0,0,0,1.26.45,1.86,1.86,0,0,0,1.33-.46,1.67,1.67,0,0,0,.48-1.26,1.83,1.83,0,0,0-.48-1.4,2,2,0,0,0-1.4-.44H28.18Z"/><path class="cls-4" d="M40,41H35.33V39.13H40Z"/><path class="cls-4" d="M48.76,40.73h1.37v1.61H48.76v1.19l1.29.25v1.45h-5V43.78l1.3-.25V42.34H41.42l-.12-1.18,5-8h2.44Zm-5.19,0h2.78V36.38l-.05,0-.2.35Z"/></g></g></svg>