<svg xmlns="http://www.w3.org/2000/svg" viewBox="0 0 675 586.68"><defs><style>.cls-1{fill:none;}.cls-2{fill:#dc4b43;}.cls-3{fill:#272727;}.cls-4{fill:#f8f64f;}.cls-5{fill:#436aad;}</style></defs><title>club-jackets-icon</title><g id="Layer_2" data-name="Layer 2"><g id="Capa_1" data-name="Capa 1"><rect class="cls-1" width="675" height="586.68"/><path class="cls-2" d="M674.32,396.32c-.1-3.8-.22-7.62-.37-11.36a795.57,795.57,0,0,0-63.49-282.28L602.1,83.09a5,5,0,0,0-2.67-2.65L503.14,40.16l-1.5-3a49.35,49.35,0,0,0-88.28,0l-1.5,3L315.57,80.44a5,5,0,0,0-2.67,2.65l-8.36,19.59A795.57,795.57,0,0,0,241.05,385c-.15,3.77-.27,7.59-.37,11.36a16,16,0,0,0,12.15,15.86,119.65,119.65,0,0,1-6.91,30.94,5,5,0,0,0,2.7,6.31,87.68,87.68,0,0,0,35.21,7.37q3.81,0,7.66-.32a5,5,0,0,0,4.58-5.12,119,119,0,0,1,3.48-32l.67,0a16.12,16.12,0,0,0,16.1-14.76c2.15-24.87,11.51-94.21,31.43-164.62-1.06,11.9-2,24.93-2.5,38-2.26,57.71,4.21,90,19.76,98.28l-3.46,25.11A5,5,0,0,0,363.4,406c.83.65,21.2,16.07,94.1,16.07s93.27-15.42,94.1-16.07a5,5,0,0,0,1.85-4.61L550,376.26c15.54-8.3,22-40.57,19.76-98.28-.52-13.09-1.45-26.12-2.5-38,19.92,70.4,29.28,139.74,31.43,164.61a16.11,16.11,0,0,0,16.77,14.74,119,119,0,0,1,3.48,32,5,5,0,0,0,4.58,5.12q3.86.31,7.66.32a87.68,87.68,0,0,0,35.21-7.37,5,5,0,0,0,2.7-6.31,119.74,119.74,0,0,1-6.91-30.94A16,16,0,0,0,674.32,396.32Z"/><path class="cls-3" d="M487,72.26a36,36,0,0,1-9.17,8.16c4.2-10.22,10.32-24.93,13.95-33a26.29,26.29,0,0,0,1.56-4.54l1.31,2.6A35.75,35.75,0,0,1,487,72.26ZM447.57,21.14a39.53,39.53,0,0,1,19.86,0,39,39,0,0,1,8.72,3.44A14.53,14.53,0,0,1,484,36.1a14.81,14.81,0,0,1-1.35,7.23c-5,11.18-14.47,34.19-17.63,41.93-1,.18-2.12.33-3.2.42L457.5,86l-4.32-.36c-1.08-.09-2.15-.24-3.2-.42-3.16-7.74-12.6-30.75-17.63-41.93a14.66,14.66,0,0,1-1.26-8,14.53,14.53,0,0,1,7.75-10.7A39.11,39.11,0,0,1,447.57,21.14ZM420.37,45.5l1.3-2.61a25.62,25.62,0,0,0,1.57,4.55c3.62,8.05,9.74,22.76,13.94,33A36.16,36.16,0,0,1,420.37,45.5ZM256.89,442a129.67,129.67,0,0,0,5.83-28.22l26.89,4.14A128.77,128.77,0,0,0,286,446.77,77.59,77.59,0,0,1,256.89,442Zm49.47-38.26A6.1,6.1,0,0,1,304,408a6,6,0,0,1-4.72,1.24l-43.62-6.71a5.93,5.93,0,0,1-5-6c.09-3.72.21-7.49.36-11.21a785.5,785.5,0,0,1,62.7-278.74l3.55-8.34,35.87,91.85C322.56,275.1,309,373,306.36,403.72Zm49.18-81.38,25.4-73.25,3.78,1.31-25.56,73.69-3.59-1.24Zm1.08,11.46,4,1.38a5,5,0,0,0,6.36-3.09L395.8,249a5,5,0,0,0-3.08-6.36L379.49,238a5,5,0,0,0-6.36,3.09L354.85,293.8c0-4.81.18-9.91.39-15.36,1.72-43.84,8.14-87.22,8.21-87.65a5.09,5.09,0,0,0-.29-2.56L323.93,87.78l86.2-36.06a46.1,46.1,0,0,0,42.22,43.92h.15V375.18c-13.15.22-50.77.13-80.85-7C367.61,367.23,360.08,361.56,356.62,333.8Zm18.09,45.31c30.23,6.25,64.83,6.32,77.79,6.08V412c-51.95-.53-74-9.21-80.59-12.58ZM462.5,412V385.19c2,0,4.56.07,7.53.07,16.1,0,44.74-.88,70.26-6.16l2.8,20.35C536.4,402.85,514.37,411.5,462.5,412Zm80.85-43.84c-30.06,7.12-67.7,7.21-80.85,7V95.65h.15a46.13,46.13,0,0,0,42.22-43.92l86.2,36.06L551.84,188.23a5.09,5.09,0,0,0-.28,2.56c.06.43,6.47,43.74,8.19,87.58.22,5.48.35,10.6.4,15.43l-18.28-52.71a5,5,0,0,0-6.36-3.09l-13.23,4.59A5,5,0,0,0,519.2,249L548,332.09a5,5,0,0,0,6.36,3.09l4-1.38C554.93,361.56,547.39,367.23,543.35,368.19Zm16.08-45.34-3.59,1.24L530.28,250.4l3.78-1.31,25.4,73.25C559.45,322.52,559.44,322.68,559.43,322.85ZM629,446.77a128.77,128.77,0,0,0-3.58-28.87l26.89-4.14A129.67,129.67,0,0,0,658.11,442,77.39,77.39,0,0,1,629,446.77Zm30.34-44.21-43.62,6.71a6.15,6.15,0,0,1-7.05-5.55c-2.65-30.74-16.2-128.6-46.8-213.6L597.7,98.27l3.56,8.34A785.5,785.5,0,0,1,664,385.35c.15,3.7.27,7.47.36,11.21A5.93,5.93,0,0,1,659.31,402.56ZM474.16,97.72a5,5,0,1,0,3.54,1.47A5,5,0,0,0,474.16,97.72Zm0,64.17a5,5,0,1,0,3.54,1.47A5,5,0,0,0,474.16,161.89Zm0,64.17a5,5,0,1,0,3.54,1.46A5,5,0,0,0,474.16,226.06Zm0,64.16a5,5,0,1,0,3.54,1.47A5,5,0,0,0,474.16,290.22Zm0,64.17a5,5,0,1,0,3.54,1.47A5,5,0,0,0,474.16,354.39Zm3.54,40.13a5,5,0,1,0,1.46,3.54A5,5,0,0,0,477.7,394.52Z"/><path class="cls-4" d="M554.32,456.32c-.1-3.8-.22-7.62-.37-11.36a795.57,795.57,0,0,0-63.49-282.28l-8.36-19.59a5,5,0,0,0-2.67-2.65l-96.29-40.28-1.5-3a49.35,49.35,0,0,0-88.28,0l-1.5,3-96.29,40.28a5,5,0,0,0-2.67,2.65l-8.36,19.59A795.57,795.57,0,0,0,121.05,445c-.15,3.77-.27,7.59-.37,11.36a16,16,0,0,0,12.15,15.86,119.65,119.65,0,0,1-6.91,30.94,5,5,0,0,0,2.7,6.31,87.68,87.68,0,0,0,35.21,7.37q3.81,0,7.66-.32a5,5,0,0,0,4.58-5.12,119,119,0,0,1,3.48-32l.67,0a16.12,16.12,0,0,0,16.1-14.76c2.15-24.87,11.51-94.21,31.43-164.62-1.06,11.9-2,24.93-2.5,38-2.26,57.71,4.21,90,19.76,98.28l-3.46,25.11A5,5,0,0,0,243.4,466c.83.65,21.2,16.07,94.1,16.07s93.27-15.42,94.1-16.07a5,5,0,0,0,1.85-4.61L430,436.26c15.54-8.3,22-40.57,19.76-98.28-.52-13.09-1.45-26.12-2.5-38,19.92,70.4,29.28,139.74,31.43,164.61a16.11,16.11,0,0,0,16.77,14.74,119,119,0,0,1,3.48,32,5,5,0,0,0,4.58,5.12q3.86.32,7.66.32a87.68,87.68,0,0,0,35.21-7.37,5,5,0,0,0,2.7-6.31,119.74,119.74,0,0,1-6.91-30.94A16,16,0,0,0,554.32,456.32Z"/><path class="cls-3" d="M367,132.26a36,36,0,0,1-9.17,8.16c4.2-10.22,10.32-24.93,13.95-33a26.29,26.29,0,0,0,1.56-4.54l1.31,2.6A35.75,35.75,0,0,1,367,132.26ZM327.57,81.14a39.53,39.53,0,0,1,19.86,0,39,39,0,0,1,8.72,3.44A14.53,14.53,0,0,1,364,96.1a14.81,14.81,0,0,1-1.35,7.23c-5,11.18-14.47,34.19-17.63,41.93-1,.18-2.12.33-3.2.42l-4.32.36-4.32-.36c-1.08-.09-2.15-.24-3.2-.42-3.16-7.74-12.6-30.75-17.63-41.93a14.07,14.07,0,0,1,6.49-18.74A39.11,39.11,0,0,1,327.57,81.14Zm-27.2,24.36,1.3-2.61a25.62,25.62,0,0,0,1.57,4.55c3.62,8,9.74,22.76,13.94,33a36.16,36.16,0,0,1-16.81-34.92ZM136.89,502a129.67,129.67,0,0,0,5.83-28.22l26.89,4.14A128.77,128.77,0,0,0,166,506.77,77.59,77.59,0,0,1,136.89,502Zm49.47-38.26A6.1,6.1,0,0,1,184,468a6,6,0,0,1-4.72,1.24l-43.62-6.71a5.93,5.93,0,0,1-5-6c.09-3.72.21-7.49.36-11.21a785.5,785.5,0,0,1,62.7-278.74l3.55-8.34,35.87,91.85C202.56,335.1,189,433,186.36,463.72Zm49.18-81.38,25.4-73.25,3.78,1.31-25.56,73.69-3.59-1.24Zm1.08,11.46,4,1.38a5,5,0,0,0,6.36-3.09L275.8,309a5,5,0,0,0-3.08-6.36L259.49,298a5,5,0,0,0-6.36,3.09L234.85,353.8c.05-4.81.18-9.91.39-15.36,1.72-43.84,8.14-87.22,8.21-87.65a5.09,5.09,0,0,0-.29-2.56L203.93,147.78l86.2-36.06a46.1,46.1,0,0,0,42.22,43.92h.15V435.18c-13.15.22-50.77.13-80.85-7C247.61,427.23,240.08,421.56,236.62,393.8Zm18.09,45.31c30.23,6.25,64.83,6.32,77.79,6.08V472c-51.95-.53-74-9.21-80.59-12.58ZM342.5,472V445.19c2,0,4.56.07,7.53.07,16.1,0,44.74-.88,70.26-6.16l2.8,20.35C416.4,462.85,394.37,471.5,342.5,472Zm80.85-43.84c-30.06,7.12-67.7,7.21-80.85,7V155.65h.15a46.13,46.13,0,0,0,42.22-43.92l86.2,36.06L431.84,248.23a5.09,5.09,0,0,0-.28,2.56c.06.43,6.47,43.74,8.19,87.58.22,5.48.35,10.6.4,15.43l-18.28-52.71a5,5,0,0,0-6.36-3.09l-13.23,4.59A5,5,0,0,0,399.2,309L428,392.09a5,5,0,0,0,6.36,3.09l4-1.38C434.93,421.56,427.39,427.23,423.35,428.19Zm16.08-45.34-3.59,1.24L410.28,310.4l3.78-1.31,25.4,73.25ZM509,506.77a128.77,128.77,0,0,0-3.58-28.87l26.89-4.14A129.67,129.67,0,0,0,538.11,502,77.39,77.39,0,0,1,509,506.77Zm30.34-44.21-43.62,6.71a6.15,6.15,0,0,1-7.05-5.55c-2.65-30.74-16.2-128.6-46.8-213.6l35.86-91.85,3.56,8.34A785.5,785.5,0,0,1,544,445.35c.15,3.7.27,7.47.36,11.21A5.93,5.93,0,0,1,539.31,462.56ZM354.16,157.72a5,5,0,1,0,3.54,1.47A5,5,0,0,0,354.16,157.72Zm0,64.17a5,5,0,1,0,3.54,1.47A5,5,0,0,0,354.16,221.89Zm0,64.17a5,5,0,1,0,3.54,1.46A5,5,0,0,0,354.16,286.06Zm0,64.16a5,5,0,1,0,3.54,1.47A5,5,0,0,0,354.16,350.22Zm0,64.17a5,5,0,1,0,3.54,1.47A5,5,0,0,0,354.16,414.39Zm3.54,40.13a5,5,0,1,0,1.46,3.54A5,5,0,0,0,357.7,454.52Z"/><path class="cls-5" d="M434.32,516.32c-.1-3.8-.22-7.62-.37-11.36a795.57,795.57,0,0,0-63.49-282.28l-8.36-19.59a5,5,0,0,0-2.67-2.65l-96.29-40.28-1.5-3a49.35,49.35,0,0,0-88.28,0l-1.5,3L75.57,200.44a5,5,0,0,0-2.67,2.65l-8.36,19.59A795.57,795.57,0,0,0,1.05,505c-.15,3.77-.27,7.59-.37,11.36a16,16,0,0,0,12.15,15.86,119.65,119.65,0,0,1-6.91,30.94,5,5,0,0,0,2.7,6.31,87.68,87.68,0,0,0,35.21,7.37q3.81,0,7.66-.32a5,5,0,0,0,4.58-5.12,119,119,0,0,1,3.48-32l.67,0a16.12,16.12,0,0,0,16.1-14.76c2.15-24.87,11.51-94.21,31.43-164.62-1.06,11.9-2,24.93-2.5,38-2.26,57.71,4.21,90,19.76,98.28l-3.46,25.11A5,5,0,0,0,123.4,526c.83.65,21.2,16.07,94.1,16.07s93.27-15.42,94.1-16.07a5,5,0,0,0,1.85-4.61L310,496.26c15.54-8.3,22-40.57,19.76-98.28-.52-13.09-1.45-26.12-2.5-38,19.92,70.4,29.28,139.74,31.43,164.61a16.11,16.11,0,0,0,16.77,14.74,119,119,0,0,1,3.48,32,5,5,0,0,0,4.58,5.12q3.86.32,7.66.32a87.68,87.68,0,0,0,35.21-7.37,5,5,0,0,0,2.7-6.31,119.74,119.74,0,0,1-6.91-30.94A16,16,0,0,0,434.32,516.32Z"/><path class="cls-3" d="M247,192.26a36,36,0,0,1-9.17,8.16c4.2-10.22,10.32-24.93,14-33a26.29,26.29,0,0,0,1.56-4.54l1.31,2.6A35.75,35.75,0,0,1,247,192.26Zm-39.42-51.12a39.53,39.53,0,0,1,19.86,0,39,39,0,0,1,8.72,3.44A14.53,14.53,0,0,1,244,156.1a14.81,14.81,0,0,1-1.35,7.23c-5,11.18-14.47,34.19-17.63,41.93-1.05.18-2.12.33-3.2.42l-4.32.36-4.32-.36c-1.08-.09-2.15-.24-3.2-.42-3.16-7.74-12.6-30.75-17.63-41.93a14.07,14.07,0,0,1,6.49-18.74A39.11,39.11,0,0,1,207.57,141.14Zm-27.2,24.36,1.3-2.61a25.62,25.62,0,0,0,1.57,4.55c3.62,8.05,9.74,22.76,13.94,33a36.16,36.16,0,0,1-16.81-34.92ZM16.89,562a129.67,129.67,0,0,0,5.83-28.22l26.89,4.14A128.77,128.77,0,0,0,46,566.77,77.59,77.59,0,0,1,16.89,562Zm49.47-38.26A6.1,6.1,0,0,1,64,528a6,6,0,0,1-4.72,1.24l-43.62-6.71a5.93,5.93,0,0,1-5-6c.09-3.72.21-7.49.36-11.21a785.5,785.5,0,0,1,62.7-278.74l3.55-8.34,35.87,91.85C82.56,395.1,69,493,66.36,523.72Zm49.18-81.38,25.4-73.25,3.78,1.31-25.56,73.69-3.59-1.24Zm1.08,11.46,4,1.38a5,5,0,0,0,6.36-3.09L155.8,369a5,5,0,0,0-3.08-6.36L139.49,358a5,5,0,0,0-6.36,3.09L114.85,413.8c.05-4.81.18-9.91.39-15.36,1.72-43.84,8.14-87.22,8.21-87.65a5.09,5.09,0,0,0-.29-2.56L83.93,207.78l86.2-36.06a46.1,46.1,0,0,0,42.22,43.92h.15V495.18c-13.15.22-50.77.13-80.85-7C127.61,487.23,120.08,481.56,116.62,453.8Zm18.09,45.31c30.23,6.25,64.83,6.32,77.79,6.08V532c-51.95-.53-74-9.21-80.59-12.58ZM222.5,532V505.19c2,0,4.56.07,7.53.07,16.1,0,44.74-.88,70.26-6.16l2.8,20.35C296.4,522.85,274.37,531.5,222.5,532Zm80.85-43.84c-30.06,7.12-67.7,7.21-80.85,7V215.65h.15a46.13,46.13,0,0,0,42.22-43.92l86.2,36.06L311.84,308.23a5.09,5.09,0,0,0-.28,2.56c.06.43,6.47,43.74,8.19,87.58.22,5.48.35,10.6.4,15.43l-18.28-52.71a5,5,0,0,0-6.36-3.09l-13.23,4.59A5,5,0,0,0,279.2,369L308,452.09a5,5,0,0,0,6.36,3.09l4-1.38C314.93,481.56,307.39,487.23,303.35,488.19Zm16.08-45.34-3.59,1.24L290.28,370.4l3.78-1.31,25.4,73.25ZM389,566.77a128.77,128.77,0,0,0-3.58-28.87l26.89-4.14A129.67,129.67,0,0,0,418.11,562,77.39,77.39,0,0,1,389,566.77Zm30.34-44.21-43.62,6.71a6.15,6.15,0,0,1-7.05-5.55c-2.65-30.74-16.2-128.6-46.8-213.6l35.86-91.85,3.56,8.34A785.5,785.5,0,0,1,424,505.35c.15,3.7.27,7.47.36,11.21A5.93,5.93,0,0,1,419.31,522.56ZM234.16,217.72a5,5,0,1,0,3.54,1.47A5,5,0,0,0,234.16,217.72Zm0,64.17a5,5,0,1,0,3.54,1.47A5,5,0,0,0,234.16,281.89Zm0,64.17a5,5,0,1,0,3.54,1.46A5,5,0,0,0,234.16,346.06Zm0,64.16a5,5,0,1,0,3.54,1.47A5,5,0,0,0,234.16,410.22Zm0,64.17a5,5,0,1,0,3.54,1.47A5,5,0,0,0,234.16,474.39Zm3.54,40.13a5,5,0,1,0,1.46,3.54A5,5,0,0,0,237.7,514.52Z"/></g></g></svg>