<svg xmlns="http://www.w3.org/2000/svg" viewBox="0 0 98.61 87.39"><defs><style>.cls-1{fill:#fff;}</style></defs><title>label-premium-quality</title><g id="Layer_2" data-name="Layer 2"><g id="Layer_1-2" data-name="Layer 1"><path class="cls-1" d="M52.19,9.65v0a.27.27,0,0,1-.27.25h0c-.87-.07-1.73-.11-2.59-.11h-.08A.28.28,0,0,1,49,9.54a.27.27,0,0,1,.27-.27h.08c.88,0,1.76,0,2.62.11A.28.28,0,0,1,52.19,9.65Zm5.07.56c-.86-.22-1.76-.38-2.64-.52a.28.28,0,0,0-.31.23.42.42,0,0,0,0,.2.49.49,0,0,0,.18.11c.87.12,1.75.3,2.6.5h.07a.28.28,0,0,0,.27-.2v0A.29.29,0,0,0,57.26,10.21ZM46.55,9.38c-.9.07-1.8.18-2.68.33a.29.29,0,0,0-.18.1.21.21,0,0,0,0,.2.26.26,0,0,0,.27.24h0c.88-.15,1.77-.26,2.65-.33a.27.27,0,0,0,.25-.27v0A.28.28,0,0,0,46.55,9.38Zm22.93,6.43a.27.27,0,0,0-.37,0,.26.26,0,0,0,0,.38,25.1,25.1,0,0,1,2.09,1.64.24.24,0,0,0,.18.07.29.29,0,0,0,.2-.09.24.24,0,0,0,.07-.18.33.33,0,0,0-.09-.2C70.92,16.91,70.2,16.33,69.48,15.81Zm4.13,3.49a.26.26,0,0,0-.38,0,.35.35,0,0,0-.07.2.26.26,0,0,0,.07.2c.61.61,1.22,1.27,1.8,1.94a.29.29,0,0,0,.2.09.34.34,0,0,0,.19-.07.28.28,0,0,0,.09-.2.29.29,0,0,0-.07-.18C74.87,20.6,74.24,19.93,73.61,19.3Zm-11.2-7.43c-.83-.35-1.69-.67-2.54-.94a.28.28,0,0,0-.34.18.24.24,0,0,0,0,.2.25.25,0,0,0,.16.14c.85.27,1.69.58,2.5.92a.22.22,0,0,0,.11,0,.24.24,0,0,0,.23-.16.23.23,0,0,0,0-.11A.24.24,0,0,0,62.41,11.87ZM41.22,10.25c-.86.21-1.74.46-2.59.73a.39.39,0,0,0-.16.15.23.23,0,0,0,0,.2.27.27,0,0,0,.25.18l.08,0c.84-.27,1.69-.52,2.55-.72a.3.3,0,0,0,.22-.27v-.06A.27.27,0,0,0,41.22,10.25ZM19.93,25.74c-.45.76-.9,1.55-1.31,2.36a.23.23,0,0,0,0,.2.28.28,0,0,0,.14.16.17.17,0,0,0,.13,0,.28.28,0,0,0,.23-.15c.4-.79.83-1.56,1.3-2.32a.35.35,0,0,0,0-.14.27.27,0,0,0-.12-.24A.29.29,0,0,0,19.93,25.74Zm-2.09,4.67a.28.28,0,0,0-.36.14c-.34.83-.66,1.69-.93,2.54a.3.3,0,0,0,0,.21.28.28,0,0,0,.17.13.16.16,0,0,0,.09,0,.28.28,0,0,0,.25-.18,26.63,26.63,0,0,1,.92-2.5.45.45,0,0,0,0-.11A.24.24,0,0,0,17.84,30.41Zm13,24.73c.61,0,1-.34,1-1.23V47.22c0-.88-.4-1.23-1-1.23s-1,.35-1,1.23v6.69C29.81,54.8,30.21,55.14,30.82,55.14Zm5.27-43.22c-.82.34-1.65.72-2.44,1.13a.26.26,0,0,0-.13.36.25.25,0,0,0,.23.15l.15,0c.79-.4,1.6-.77,2.41-1.12a.29.29,0,0,0,.16-.25.23.23,0,0,0,0-.11A.3.3,0,0,0,36.09,11.92Zm8.82,34.65h0L44,52.83h1.87Zm-28.76-11a.26.26,0,0,0-.32.2c-.22.86-.38,1.76-.53,2.64a.34.34,0,0,0,.06.2.33.33,0,0,0,.18.11h0a.28.28,0,0,0,.27-.22c.13-.88.31-1.74.51-2.61v-.05A.26.26,0,0,0,16.15,35.52Zm10.76-18c-.68.58-1.35,1.21-2,1.84a.43.43,0,0,0-.07.2.33.33,0,0,0,.09.2.33.33,0,0,0,.18.07.31.31,0,0,0,.2-.09c.61-.61,1.28-1.23,1.94-1.8a.25.25,0,0,0,.09-.2.29.29,0,0,0-.07-.18A.28.28,0,0,0,26.91,17.55ZM77.1,23.4a.29.29,0,0,0-.38,0,.42.42,0,0,0-.11.18.36.36,0,0,0,.06.2c.52.72,1,1.46,1.47,2.21a.34.34,0,0,0,.24.13.33.33,0,0,0,.14,0,.3.3,0,0,0,.13-.23.33.33,0,0,0,0-.15C78.14,24.88,77.64,24.12,77.1,23.4Zm-45.81-9c-.78.47-1.53,1-2.25,1.51a.27.27,0,0,0,.16.49.27.27,0,0,0,.16-.06c.72-.5,1.46-1,2.22-1.47a.33.33,0,0,0,.12-.24.49.49,0,0,0,0-.14A.29.29,0,0,0,31.29,14.37Zm-8.17,7c-.58.68-1.16,1.4-1.68,2.12a.26.26,0,0,0,.06.38.25.25,0,0,0,.16.06.23.23,0,0,0,.21-.13c.51-.72,1.07-1.4,1.64-2.09a.21.21,0,0,0,.07-.18.28.28,0,0,0-.09-.2A.27.27,0,0,0,23.12,21.37ZM64.88,13a.29.29,0,0,0-.36.13.26.26,0,0,0,0,.21.31.31,0,0,0,.12.17A26.47,26.47,0,0,1,67,14.78a.37.37,0,0,0,.14,0,.28.28,0,0,0,.23-.15.37.37,0,0,0,0-.14.28.28,0,0,0-.13-.23C66.46,13.83,65.67,13.4,64.88,13Zm-.18,60.9c-.78.39-1.61.77-2.42,1.11a.29.29,0,0,0-.16.25.2.2,0,0,0,0,.11.28.28,0,0,0,.25.16.12.12,0,0,0,.09,0c.83-.34,1.64-.72,2.45-1.14a.26.26,0,1,0-.23-.46Zm-4.9,2c-.83.27-1.69.5-2.56.72a.29.29,0,0,0-.21.27v0a.28.28,0,0,0,.27.22s0,0,.07,0c.86-.22,1.73-.47,2.59-.74a.26.26,0,0,0,.18-.34A.27.27,0,0,0,59.8,75.91ZM49.31,77.57h0c-.87,0-1.77,0-2.63-.11a.28.28,0,0,0-.29.25v0a.28.28,0,0,0,.25.27c.9.07,1.8.11,2.69.11h0a.26.26,0,0,0,.26-.27A.28.28,0,0,0,49.31,77.57Zm5.32-.42c-.86.13-1.74.24-2.62.31h0a.26.26,0,0,0-.25.27v0A.27.27,0,0,0,52,78s0,0,0,0c.9-.08,1.8-.18,2.69-.33a.26.26,0,0,0,.23-.3A.27.27,0,0,0,54.63,77.15Zm14.58-6.06c-.72.52-1.45,1-2.21,1.47a.34.34,0,0,0-.13.24.33.33,0,0,0,0,.14.3.3,0,0,0,.23.13.33.33,0,0,0,.15,0c.77-.49,1.53-1,2.25-1.51a.27.27,0,1,0-.33-.43Zm4-3.44c-.62.63-1.28,1.22-2,1.8a.25.25,0,0,0-.09.2.4.4,0,0,0,.07.18.33.33,0,0,0,.2.09.16.16,0,0,0,.16-.08c.69-.57,1.35-1.18,2-1.81a.26.26,0,0,0,0-.38A.25.25,0,0,0,73.25,67.65Zm3.47-4.05c-.52.72-1.08,1.42-1.66,2.09a.23.23,0,0,0-.07.18.28.28,0,0,0,.09.19.26.26,0,0,0,.18.08.34.34,0,0,0,.22-.09c.57-.69,1.15-1.41,1.67-2.13a.27.27,0,0,0-.05-.38A.28.28,0,0,0,76.72,63.6Zm4.34-33.18c-.34-.81-.72-1.63-1.14-2.43a.26.26,0,0,0-.36-.1.29.29,0,0,0-.12.16.24.24,0,0,0,0,.2c.39.79.77,1.6,1.11,2.41a.29.29,0,0,0,.25.16s.08,0,.09,0a.3.3,0,0,0,.17-.25.22.22,0,0,0,0-.11Zm17.55,29.2c-.06.88-.53,1.66-1.21,1.66H89.15a17.8,17.8,0,0,0-3.36,3.49c-1.26,2.18-1,5.49-2.55,7.4S78.32,74.34,76.4,76s-2.76,4.83-4.94,6.09-5.34.38-7.74,1.24-4.21,3.58-6.71,4-5.13-1.49-7.69-1.49-5.25,1.92-7.68,1.49-4.38-3.17-6.72-4-5.58,0-7.74-1.24-3-4.48-4.93-6.09S17,74.09,15.41,72.17s-1.29-5.22-2.55-7.4a18.81,18.81,0,0,0-3.38-3.49H1.21c-.68,0-1.13-.79-1.2-1.66ZM83.33,61.28H78.87c-.07.12-.14.25-.22.37a.25.25,0,0,1-.22.15.37.37,0,0,1-.14,0,.26.26,0,0,1-.13-.23.42.42,0,0,1,0-.15l.06-.1h-63a38.31,38.31,0,0,0,68.05,0ZM0,59.62H0s0-.09,0-.14Zm.35-16c-.74-1.19-.18-3.17.88-3.17H6a15.92,15.92,0,0,0,1.8-4.09c.43-2.5-1-5.49-.13-7.83s3.89-3.74,5.13-5.92.95-5.49,2.56-7.4,4.91-2.17,6.84-3.79S25,6.59,27.15,5.33,32.49,5,34.89,4.09,39.1.51,41.6.06s5.15,1.51,7.71,1.51S54.56-.36,57,.08s4.38,3.16,6.72,4,5.58,0,7.74,1.24,3,4.48,4.93,6.08,5.24,1.88,6.84,3.8,1.29,5.22,2.55,7.4S90,26.16,90.9,28.55s-.57,5.33-.12,7.83a16,16,0,0,0,1.81,4.07H97.4c.75,0,1.22.94,1.21,1.91H0a2.69,2.69,0,0,0,.15.83H98.48a1.86,1.86,0,0,1-.2.43L95,48.77A4.28,4.28,0,0,0,95,53l3.24,5.15a2.36,2.36,0,0,1,.27.68H.07a2.08,2.08,0,0,1,.26-.68l3.26-5.22a4.28,4.28,0,0,0,0-4.2Zm64,.74,2.47,8.29v4.11h1.94V52.65l2.47-8.29H69.38L67.9,50h0l-1.47-5.65Zm-6.22,0v1.77h2V56.78H62.1V46.14h2V44.37ZM55.32,56.78h1.94V44.37H55.32Zm-6,0h5.14V55h-3.2V44.37H49.31Zm-7.73,0h1.79l.34-2.25H46.1l.34,2.25h2l-2-12.41H43.56Zm-6.62-3c0,2,1,3.12,2.9,3.12s2.9-1.14,2.9-3.12V44.37H38.92V54c0,.88-.4,1.21-1,1.21s-1-.33-1-1.21V44.37H35Zm-7.11,0c0,2,1,3.11,2.95,3.11a4.09,4.09,0,0,0,1.37-.23,1.75,1.75,0,0,0,1.69.84h.27V55.79H34c-.32,0-.47,0-.56-.27a3.49,3.49,0,0,0,.38-1.73V47.34c0-2-1-3.11-3-3.11s-2.95,1.13-2.95,3.11h0ZM11.15,40.45H83c-.07-.71-.14-1.43-.26-2.14a.21.21,0,0,1,0-.2A.37.37,0,0,1,83,38a.27.27,0,0,1,.31.24c.12.72.2,1.47.27,2.21h3.9a38.29,38.29,0,0,0-76.31,0Zm9.3,20.95a.3.3,0,0,0-.38-.09.33.33,0,0,0-.12.24.22.22,0,0,0,0,.14c.45.76,1,1.51,1.5,2.25a.25.25,0,0,0,.21.11.26.26,0,0,0,.18-.06.27.27,0,0,0,.06-.37C21.41,62.9,20.92,62.16,20.45,61.4ZM82.77,35.59c-.22-.86-.47-1.75-.74-2.59a.26.26,0,0,0-.34-.18.28.28,0,0,0-.16.14.23.23,0,0,0,0,.2c.27.83.52,1.69.72,2.56a.29.29,0,0,0,.27.19h0a.28.28,0,0,0,.22-.27ZM44.05,77.17c-.88-.14-1.75-.32-2.61-.52a.26.26,0,0,0-.32.2s0,0,0,.05a.29.29,0,0,0,.21.27c.87.22,1.77.38,2.65.52h0a.36.36,0,0,0,.28-.21.31.31,0,0,0-.05-.2A.31.31,0,0,0,44.05,77.17ZM23.55,65.72a.28.28,0,0,0-.38,0,.25.25,0,0,0-.09.19.33.33,0,0,0,.07.18c.58.69,1.21,1.35,1.84,2a.33.33,0,0,0,.2.08.19.19,0,0,0,.16-.08.25.25,0,0,0,0-.37C24.72,67.05,24.12,66.39,23.55,65.72Zm8.08,6.86a.28.28,0,0,0-.38.09.35.35,0,0,0,0,.14.27.27,0,0,0,.12.24c.78.47,1.57.9,2.36,1.31a.17.17,0,0,0,.13,0,.25.25,0,0,0,.23-.16.27.27,0,0,0-.11-.36C33.16,73.48,32.39,73.05,31.63,72.58Zm7.24,3.33c-.85-.27-1.7-.58-2.51-.92a.29.29,0,0,0-.36.15.34.34,0,0,0,0,.1.26.26,0,0,0,.16.26c.83.34,1.69.66,2.54.93a.13.13,0,0,0,.09,0,.29.29,0,0,0,.27-.2.35.35,0,0,0,0-.2A.27.27,0,0,0,38.87,75.91ZM27.33,69.45a.29.29,0,0,0-.38,0,.26.26,0,0,0-.07.18.25.25,0,0,0,.09.2c.68.58,1.4,1.15,2.12,1.68a.37.37,0,0,0,.16,0,.23.23,0,0,0,.22-.13.26.26,0,0,0,0-.37C28.7,70.58,28,70,27.33,69.45ZM31,26.36H28.44V37.21h1.71V33.12H31c1.7,0,2.54-.95,2.54-2.68V29C33.5,27.31,32.66,26.36,31,26.36Zm0,1.56c.56,0,.85.25.85,1v1.62c0,.77-.31,1-.85,1h-.81V27.92Zm8.61,9.29a3.36,3.36,0,0,1-.18-1.31V34.22c0-1.13-.29-1.94-1.14-2.3v0a2.12,2.12,0,0,0,1.12-2.18v-.84c0-1.68-.76-2.5-2.52-2.5H34.28V37.21H36V32.78h.59c.77,0,1.12.38,1.12,1.39v1.71a3.39,3.39,0,0,0,.16,1.33Zm-2.74-9.29c.6,0,.87.34.87,1.12V30.1c0,.86-.4,1.15-1,1.15H36V27.92Zm5.4,0h3V26.37H40.54V37.23h4.64V35.68h-3V32.49h2.34V31H42.23Zm6.36-1.56h-2.4V37.21h1.5V29.54h0L49,37.21h1.62l1.16-7.78h0v7.78h1.62V26.37H51l-1.16,7.71h0Zm6,10.85h1.71V26.36H54.62ZM57.5,26.36v8.26c0,1.74.86,2.73,2.53,2.73s2.54-1,2.54-2.73V26.36H61v8.37c0,.77-.34,1.06-.88,1.06s-.88-.29-.88-1.06V26.36Zm8.58,0H63.71V37.21H65.2V29.54h0l1.24,7.67H68.1l1.15-7.78h0v7.78h1.62V26.37H68.53l-1.15,7.71h0Zm-17.82-11-2.34.32,1.69,1.66-.39,2.34,2.09-1.1,2.08,1.1L51,17.32l1.69-1.66-2.34-.32-1-2.12ZM41,17.68l-1.49.22L40.54,19l-.25,1.47,1.35-.7,1.33.7L42.72,19,43.8,17.9l-1.5-.22-.66-1.35Zm15.36.22-1.5.21,1.08,1.06-.25,1.48L57,20l1.35.7-.25-1.48,1.08-1.06-1.49-.21L57,16.55Zm-7.9,51.62-2.33.34,1.68,1.64-.4,2.3,2.07-1.08,2.09,1.08-.4-2.3,1.68-1.64-2.32-.34-1-2.09Zm-7.31-.58-1.5.22,1.08,1.06-.25,1.5L41.76,71l1.34.71-.26-1.5,1.08-1.06-1.49-.22-.67-1.35Zm15.28-.88-1.48.2,1.07,1-.26,1.48,1.34-.68,1.31.68-.25-1.48,1.08-1-1.5-.2-.64-1.35Z"/></g></g></svg>