<svg xmlns="http://www.w3.org/2000/svg" viewBox="0 0 98.61 87.39"><defs><style>.cls-1{fill:#fff;}</style></defs><title>top-rated</title><g id="Layer_2" data-name="Layer 2"><g id="Layer_1-2" data-name="Layer 1"><polygon class="cls-1" points="41.76 28.93 43.32 28.93 43.32 37.08 44.82 37.08 44.82 28.93 46.38 28.93 46.38 27.57 41.76 27.57 41.76 28.93"/><path class="cls-1" d="M64.88,13a.29.29,0,0,0-.36.13.26.26,0,0,0,0,.21.31.31,0,0,0,.12.17A26.47,26.47,0,0,1,67,14.78a.37.37,0,0,0,.14,0,.28.28,0,0,0,.23-.15.37.37,0,0,0,0-.14.28.28,0,0,0-.13-.23C66.46,13.83,65.67,13.4,64.88,13Z"/><path class="cls-1" d="M41.55,10.5v-.06a.27.27,0,0,0-.33-.19c-.86.21-1.74.46-2.59.73a.39.39,0,0,0-.16.15.23.23,0,0,0,0,.2.27.27,0,0,0,.25.18l.08,0c.84-.27,1.69-.52,2.55-.72A.3.3,0,0,0,41.55,10.5Z"/><polygon class="cls-1" points="42.72 18.96 43.8 17.9 42.3 17.68 41.64 16.33 40.95 17.68 39.46 17.9 40.54 18.96 40.29 20.43 41.64 19.73 42.97 20.43 42.72 18.96"/><polygon class="cls-1" points="57.66 17.9 56.98 16.55 56.31 17.9 54.81 18.11 55.9 19.17 55.64 20.65 56.98 19.95 58.33 20.65 58.07 19.17 59.15 18.11 57.66 17.9"/><path class="cls-1" d="M49.19,27.46a2.11,2.11,0,0,0-2.27,2.39V34.8a2.27,2.27,0,1,0,4.54,0V29.85A2.11,2.11,0,0,0,49.19,27.46ZM50,34.9c0,.68-.3.93-.77.93s-.78-.25-.78-.93V29.76c0-.68.3-.94.78-.94s.77.26.77.94Z"/><path class="cls-1" d="M31.29,14.37c-.78.47-1.53,1-2.25,1.51a.27.27,0,0,0,.16.49.27.27,0,0,0,.16-.06c.72-.5,1.46-1,2.22-1.47a.33.33,0,0,0,.12-.24.49.49,0,0,0,0-.14A.29.29,0,0,0,31.29,14.37Z"/><path class="cls-1" d="M62.41,11.87c-.83-.35-1.69-.67-2.54-.94a.28.28,0,0,0-.34.18.24.24,0,0,0,0,.2.25.25,0,0,0,.16.14c.85.27,1.69.58,2.5.92a.22.22,0,0,0,.11,0,.24.24,0,0,0,.23-.16.23.23,0,0,0,0-.11A.24.24,0,0,0,62.41,11.87Z"/><path class="cls-1" d="M54.62,27.57h-2.2v9.51h1.5V33.51h.7c1.5,0,2.23-.83,2.23-2.35V29.92C56.85,28.4,56.12,27.57,54.62,27.57Zm.74,3.68c0,.68-.26.9-.74.9h-.7V28.93h.7c.48,0,.74.21.74.89Z"/><path class="cls-1" d="M36.09,11.92c-.82.34-1.65.72-2.44,1.13a.26.26,0,0,0-.13.36.25.25,0,0,0,.23.15l.15,0c.79-.4,1.6-.77,2.41-1.12a.29.29,0,0,0,.16-.25.23.23,0,0,0,0-.11A.3.3,0,0,0,36.09,11.92Z"/><path class="cls-1" d="M54.54,10.23c.87.12,1.75.3,2.6.5h.07a.28.28,0,0,0,.27-.2v0a.29.29,0,0,0-.22-.27c-.86-.22-1.76-.38-2.64-.52a.28.28,0,0,0-.31.23.42.42,0,0,0,0,.2A.49.49,0,0,0,54.54,10.23Z"/><path class="cls-1" d="M49.23,9.81h.08c.86,0,1.72,0,2.59.11h0a.27.27,0,0,0,.27-.25v0a.28.28,0,0,0-.26-.27c-.86-.07-1.74-.11-2.62-.11h-.08a.27.27,0,0,0-.27.27A.28.28,0,0,0,49.23,9.81Z"/><polygon class="cls-1" points="47.62 17.32 47.22 19.66 49.31 18.56 51.4 19.66 51 17.32 52.69 15.66 50.35 15.34 49.31 13.22 48.26 15.34 45.92 15.66 47.62 17.32"/><path class="cls-1" d="M36.59,48.61V47.39c0-.89-.3-1.28-1-1.28h-.94v3.82h.76C36.15,49.93,36.59,49.61,36.59,48.61Z"/><path class="cls-1" d="M26.91,17.55c-.68.58-1.35,1.21-2,1.84a.43.43,0,0,0-.07.2.33.33,0,0,0,.09.2.33.33,0,0,0,.18.07.31.31,0,0,0,.2-.09c.61-.61,1.28-1.23,1.94-1.8a.25.25,0,0,0,.09-.2.29.29,0,0,0-.07-.18A.28.28,0,0,0,26.91,17.55Z"/><polygon class="cls-1" points="42.64 46.54 41.7 52.82 43.58 52.82 42.64 46.54"/><path class="cls-1" d="M64,53.78V47.32c0-.89-.37-1.21-1-1.21h-1.1V55H63C63.59,55,64,54.66,64,53.78Z"/><path class="cls-1" d="M19.93,25.74c-.45.76-.9,1.55-1.31,2.36a.23.23,0,0,0,0,.2.28.28,0,0,0,.14.16.17.17,0,0,0,.13,0,.28.28,0,0,0,.23-.15c.4-.79.83-1.56,1.3-2.32a.35.35,0,0,0,0-.14.27.27,0,0,0-.12-.24A.29.29,0,0,0,19.93,25.74Z"/><path class="cls-1" d="M23.12,21.37c-.58.68-1.16,1.4-1.68,2.12a.26.26,0,0,0,.06.38.25.25,0,0,0,.16.06.23.23,0,0,0,.21-.13c.51-.72,1.07-1.4,1.64-2.09a.21.21,0,0,0,.07-.18.28.28,0,0,0-.09-.2A.27.27,0,0,0,23.12,21.37Z"/><path class="cls-1" d="M17.84,30.41a.28.28,0,0,0-.36.14c-.34.83-.66,1.69-.93,2.54a.3.3,0,0,0,0,.21.28.28,0,0,0,.17.13.16.16,0,0,0,.09,0,.28.28,0,0,0,.25-.18,26.63,26.63,0,0,1,.92-2.5.45.45,0,0,0,0-.11A.24.24,0,0,0,17.84,30.41Z"/><path class="cls-1" d="M43.91,10.25h0c.88-.15,1.77-.26,2.65-.33a.27.27,0,0,0,.25-.27v0a.28.28,0,0,0-.29-.25c-.9.07-1.8.18-2.68.33a.29.29,0,0,0-.18.1.21.21,0,0,0,0,.2A.26.26,0,0,0,43.91,10.25Z"/><path class="cls-1" d="M16.15,35.52a.26.26,0,0,0-.32.2c-.22.86-.38,1.76-.53,2.64a.34.34,0,0,0,.06.2.33.33,0,0,0,.18.11h0a.28.28,0,0,0,.27-.22c.13-.88.31-1.74.51-2.61v-.05A.26.26,0,0,0,16.15,35.52Z"/><path class="cls-1" d="M77.1,23.4a.29.29,0,0,0-.38,0,.42.42,0,0,0-.11.18.36.36,0,0,0,.06.2c.52.72,1,1.46,1.47,2.21a.34.34,0,0,0,.24.13.33.33,0,0,0,.14,0,.3.3,0,0,0,.13-.23.33.33,0,0,0,0-.15C78.14,24.88,77.64,24.12,77.1,23.4Z"/><polygon class="cls-1" points="57.05 70.1 58.36 70.78 58.11 69.3 59.19 68.26 57.7 68.06 57.05 66.71 56.38 68.06 54.91 68.26 55.97 69.3 55.72 70.78 57.05 70.1"/><path class="cls-1" d="M54.63,77.15c-.86.13-1.74.24-2.62.31h0a.26.26,0,0,0-.25.27v0A.27.27,0,0,0,52,78s0,0,0,0c.9-.08,1.8-.18,2.69-.33a.26.26,0,0,0,.23-.3A.27.27,0,0,0,54.63,77.15Z"/><path class="cls-1" d="M44.05,77.17c-.88-.14-1.75-.32-2.61-.52a.26.26,0,0,0-.32.2s0,0,0,.05a.29.29,0,0,0,.21.27c.87.22,1.77.38,2.65.52h0a.36.36,0,0,0,.28-.21.31.31,0,0,0-.05-.2A.31.31,0,0,0,44.05,77.17Z"/><polygon class="cls-1" points="52.8 69.86 50.48 69.52 49.43 67.43 48.41 69.52 46.09 69.86 47.76 71.5 47.36 73.8 49.43 72.72 51.52 73.8 51.13 71.5 52.8 69.86"/><path class="cls-1" d="M59.8,75.91c-.83.27-1.69.5-2.56.72a.29.29,0,0,0-.21.27v0a.28.28,0,0,0,.27.22s0,0,.07,0c.86-.22,1.73-.47,2.59-.74a.26.26,0,0,0,.18-.34A.27.27,0,0,0,59.8,75.91Z"/><path class="cls-1" d="M49.31,77.57h0c-.87,0-1.77,0-2.63-.11a.28.28,0,0,0-.29.25v0a.28.28,0,0,0,.25.27c.9.07,1.8.11,2.69.11h0a.26.26,0,0,0,.26-.27A.28.28,0,0,0,49.31,77.57Z"/><path class="cls-1" d="M69.48,15.81a.27.27,0,0,0-.37,0,.26.26,0,0,0,0,.38,25.1,25.1,0,0,1,2.09,1.64.24.24,0,0,0,.18.07.29.29,0,0,0,.2-.09.24.24,0,0,0,.07-.18.33.33,0,0,0-.09-.2C70.92,16.91,70.2,16.33,69.48,15.81Z"/><path class="cls-1" d="M73.25,67.65c-.62.63-1.28,1.22-2,1.8a.25.25,0,0,0-.09.2.4.4,0,0,0,.07.18.33.33,0,0,0,.2.09.16.16,0,0,0,.16-.08c.69-.57,1.35-1.18,2-1.81a.26.26,0,0,0,0-.38A.25.25,0,0,0,73.25,67.65Z"/><path class="cls-1" d="M64.7,73.88c-.78.39-1.61.77-2.42,1.11a.29.29,0,0,0-.16.25.2.2,0,0,0,0,.11.28.28,0,0,0,.25.16.12.12,0,0,0,.09,0c.83-.34,1.64-.72,2.45-1.14a.26.26,0,1,0-.23-.46Z"/><path class="cls-1" d="M69.21,71.09c-.72.52-1.45,1-2.21,1.47a.34.34,0,0,0-.13.24.33.33,0,0,0,0,.14.3.3,0,0,0,.23.13.33.33,0,0,0,.15,0c.77-.49,1.53-1,2.25-1.51a.27.27,0,1,0-.33-.43Z"/><path class="cls-1" d="M0,59.62c.07.87.52,1.66,1.2,1.66H9.48a18.81,18.81,0,0,1,3.38,3.49c1.26,2.18.93,5.47,2.55,7.4s4.92,2.17,6.84,3.79,2.76,4.83,4.93,6.09,5.37.38,7.74,1.24,4.22,3.6,6.72,4,5.13-1.49,7.68-1.49,5.26,1.92,7.69,1.49,4.37-3.18,6.71-4,5.58,0,7.74-1.24,3-4.47,4.94-6.09,5.22-1.87,6.84-3.79,1.29-5.22,2.55-7.4a17.8,17.8,0,0,1,3.36-3.49H97.4c.68,0,1.15-.78,1.21-1.66ZM49.31,82a38.29,38.29,0,0,1-34-20.71h63l-.06.1a.42.42,0,0,0,0,.15.26.26,0,0,0,.13.23.37.37,0,0,0,.14,0,.25.25,0,0,0,.22-.15c.08-.12.15-.25.22-.37h4.46A38.28,38.28,0,0,1,49.31,82Z"/><path class="cls-1" d="M0,59.62H0s0-.09,0-.14Z"/><path class="cls-1" d="M82.77,35.59c-.22-.86-.47-1.75-.74-2.59a.26.26,0,0,0-.34-.18.28.28,0,0,0-.16.14.23.23,0,0,0,0,.2c.27.83.52,1.69.72,2.56a.29.29,0,0,0,.27.19h0a.28.28,0,0,0,.22-.27Z"/><path class="cls-1" d="M3.57,48.69a4.28,4.28,0,0,1,0,4.2L.33,58.11a2.08,2.08,0,0,0-.26.68H98.55a2.36,2.36,0,0,0-.27-.68L95,53a4.28,4.28,0,0,1,0-4.19l3.24-5.15a1.86,1.86,0,0,0,.2-.43H.17A2.69,2.69,0,0,1,0,42.36H98.61c0-1-.46-1.91-1.21-1.91H92.59a16,16,0,0,1-1.81-4.07c-.45-2.5,1-5.49.12-7.83S87,24.79,85.77,22.63s-.93-5.47-2.55-7.4-4.92-2.18-6.84-3.8-2.76-4.82-4.93-6.08S66.08,5,63.71,4.11,59.49.51,57,.08s-5.13,1.49-7.68,1.49S44.05-.36,41.6.06s-4.37,3.18-6.71,4-5.58,0-7.74,1.24-3,4.47-4.93,6.09S17,13.29,15.38,15.21s-1.3,5.22-2.56,7.4-4.27,3.55-5.13,5.92.56,5.33.13,7.83A15.92,15.92,0,0,1,6,40.45H1.23c-1.06,0-1.62,2-.88,3.17Zm56.34-4.35H63c2,0,2.91,1.08,2.91,3.07v6.28c0,2-1,3.07-2.91,3.07H59.91Zm-6.53,0h5.33v1.77H55.33v3.46H58v1.78H55.33V55h3.38v1.78H53.38Zm-6.89,0h6v1.77h-2V56.76h-2V46.11h-2Zm-5.18,0h2.86l2,12.42h-2l-.34-2.26h-2.4l-.33,2.26h-1.8Zm-8.61,0h2.95c2,0,2.89.94,2.89,2.85v1a2.48,2.48,0,0,1-1.28,2.52c1,.41,1.3,1.35,1.3,2.64v1.92a3.76,3.76,0,0,0,.21,1.51h-2a4.05,4.05,0,0,1-.17-1.53V53.28c0-1.15-.39-1.58-1.28-1.58h-.67v5.06h-2ZM49.31,5.39A38.28,38.28,0,0,1,87.46,40.45h-3.9c-.07-.74-.15-1.49-.27-2.21A.27.27,0,0,0,83,38a.37.37,0,0,0-.18.11.21.21,0,0,0,0,.2c.12.71.19,1.43.26,2.14H11.15A38.29,38.29,0,0,1,49.31,5.39Z"/><path class="cls-1" d="M73.61,19.3a.26.26,0,0,0-.38,0,.35.35,0,0,0-.07.2.26.26,0,0,0,.07.2c.61.61,1.22,1.27,1.8,1.94a.29.29,0,0,0,.2.09.34.34,0,0,0,.19-.07.28.28,0,0,0,.09-.2.29.29,0,0,0-.07-.18C74.87,20.6,74.24,19.93,73.61,19.3Z"/><path class="cls-1" d="M76.72,63.6c-.52.72-1.08,1.42-1.66,2.09a.23.23,0,0,0-.07.18.28.28,0,0,0,.09.19.26.26,0,0,0,.18.08.34.34,0,0,0,.22-.09c.57-.69,1.15-1.41,1.67-2.13a.27.27,0,0,0-.05-.38A.28.28,0,0,0,76.72,63.6Z"/><path class="cls-1" d="M81.06,30.42c-.34-.81-.72-1.63-1.14-2.43a.26.26,0,0,0-.36-.1.29.29,0,0,0-.12.16.24.24,0,0,0,0,.2c.39.79.77,1.6,1.11,2.41a.29.29,0,0,0,.25.16s.08,0,.09,0a.3.3,0,0,0,.17-.25.22.22,0,0,0,0-.11Z"/><polygon class="cls-1" points="41.77 71.01 43.1 71.72 42.84 70.22 43.92 69.16 42.43 68.94 41.77 67.59 41.1 68.94 39.6 69.16 40.69 70.22 40.43 71.72 41.77 71.01"/><path class="cls-1" d="M38.87,75.91c-.85-.27-1.7-.58-2.51-.92a.29.29,0,0,0-.36.15.34.34,0,0,0,0,.1.26.26,0,0,0,.16.26c.83.34,1.69.66,2.54.93a.13.13,0,0,0,.09,0,.29.29,0,0,0,.27-.2.35.35,0,0,0,0-.2A.27.27,0,0,0,38.87,75.91Z"/><path class="cls-1" d="M31.63,72.58a.28.28,0,0,0-.38.09.35.35,0,0,0,0,.14.27.27,0,0,0,.12.24c.78.47,1.57.9,2.36,1.31a.17.17,0,0,0,.13,0,.25.25,0,0,0,.23-.16.27.27,0,0,0-.11-.36C33.16,73.48,32.39,73.05,31.63,72.58Z"/><path class="cls-1" d="M23.55,65.72a.28.28,0,0,0-.38,0,.25.25,0,0,0-.09.19.33.33,0,0,0,.07.18c.58.69,1.21,1.35,1.84,2a.33.33,0,0,0,.2.08.19.19,0,0,0,.16-.08.25.25,0,0,0,0-.37C24.72,67.05,24.12,66.39,23.55,65.72Z"/><path class="cls-1" d="M27.33,69.45a.29.29,0,0,0-.38,0,.26.26,0,0,0-.07.18.25.25,0,0,0,.09.2c.68.58,1.4,1.15,2.12,1.68a.37.37,0,0,0,.16,0,.23.23,0,0,0,.22-.13.26.26,0,0,0,0-.37C28.7,70.58,28,70,27.33,69.45Z"/><path class="cls-1" d="M20.45,61.4a.3.3,0,0,0-.38-.09.33.33,0,0,0-.12.24.22.22,0,0,0,0,.14c.45.76,1,1.51,1.5,2.25a.25.25,0,0,0,.21.11.26.26,0,0,0,.18-.06.27.27,0,0,0,.06-.37C21.41,62.9,20.92,62.16,20.45,61.4Z"/></g></g></svg>