<svg xmlns="http://www.w3.org/2000/svg" viewBox="0 0 98.61 87.39"><defs><style>.cls-1{fill:#fff;}</style></defs><title>label-accredited-business</title><g id="Layer_2" data-name="Layer 2"><g id="Layer_1-2" data-name="Layer 1"><path class="cls-1" d="M78.61,25.65a.33.33,0,0,1,0,.15.3.3,0,0,1-.13.23.33.33,0,0,1-.14,0,.34.34,0,0,1-.24-.13c-.47-.75-1-1.49-1.47-2.21a.36.36,0,0,1-.06-.2.42.42,0,0,1,.11-.18.29.29,0,0,1,.38,0C77.64,24.12,78.14,24.88,78.61,25.65ZM46.55,9.38c-.9.07-1.8.18-2.68.33a.29.29,0,0,0-.18.1.21.21,0,0,0,0,.2.26.26,0,0,0,.27.24h0c.88-.15,1.77-.26,2.65-.33a.27.27,0,0,0,.25-.27v0A.28.28,0,0,0,46.55,9.38Zm-5.33.87c-.86.21-1.74.46-2.59.73a.39.39,0,0,0-.16.15.23.23,0,0,0,0,.2.27.27,0,0,0,.25.18l.08,0c.84-.27,1.69-.52,2.55-.72a.3.3,0,0,0,.22-.27v-.06A.27.27,0,0,0,41.22,10.25Zm16,0c-.86-.22-1.76-.38-2.64-.52a.28.28,0,0,0-.31.23.42.42,0,0,0,0,.2.49.49,0,0,0,.18.11c.87.12,1.75.3,2.6.5h.07a.28.28,0,0,0,.27-.2v0A.29.29,0,0,0,57.26,10.21Zm5.15,1.66c-.83-.35-1.69-.67-2.54-.94a.28.28,0,0,0-.34.18.24.24,0,0,0,0,.2.25.25,0,0,0,.16.14c.85.27,1.69.58,2.5.92a.22.22,0,0,0,.11,0,.24.24,0,0,0,.23-.16.23.23,0,0,0,0-.11A.24.24,0,0,0,62.41,11.87Zm-26.32.05c-.82.34-1.65.72-2.44,1.13a.26.26,0,0,0-.13.36.25.25,0,0,0,.23.15l.15,0c.79-.4,1.6-.77,2.41-1.12a.29.29,0,0,0,.16-.25.23.23,0,0,0,0-.11A.3.3,0,0,0,36.09,11.92Zm33.39,3.89a.27.27,0,0,0-.37,0,.26.26,0,0,0,0,.38,25.1,25.1,0,0,1,2.09,1.64.24.24,0,0,0,.18.07.29.29,0,0,0,.2-.09.24.24,0,0,0,.07-.18.33.33,0,0,0-.09-.2C70.92,16.91,70.2,16.33,69.48,15.81Zm4.13,3.49a.26.26,0,0,0-.38,0,.35.35,0,0,0-.07.2.26.26,0,0,0,.07.2c.61.61,1.22,1.27,1.8,1.94a.29.29,0,0,0,.2.09.34.34,0,0,0,.19-.07.28.28,0,0,0,.09-.2.29.29,0,0,0-.07-.18C74.87,20.6,74.24,19.93,73.61,19.3ZM64.88,13a.29.29,0,0,0-.36.13.26.26,0,0,0,0,.21.31.31,0,0,0,.12.17A26.47,26.47,0,0,1,67,14.78a.37.37,0,0,0,.14,0,.28.28,0,0,0,.23-.15.37.37,0,0,0,0-.14.28.28,0,0,0-.13-.23C66.46,13.83,65.67,13.4,64.88,13ZM51.93,9.38c-.86-.07-1.74-.11-2.62-.11h-.08a.27.27,0,0,0-.27.27.28.28,0,0,0,.27.27h.08c.86,0,1.72,0,2.59.11h0a.27.27,0,0,0,.27-.25v0A.28.28,0,0,0,51.93,9.38ZM16.15,35.52a.26.26,0,0,0-.32.2c-.22.86-.38,1.76-.53,2.64a.34.34,0,0,0,.06.2.33.33,0,0,0,.18.11h0a.28.28,0,0,0,.27-.22c.13-.88.31-1.74.51-2.61v-.05A.26.26,0,0,0,16.15,35.52ZM31.29,14.37c-.78.47-1.53,1-2.25,1.51a.27.27,0,0,0,.16.49.27.27,0,0,0,.16-.06c.72-.5,1.46-1,2.22-1.47a.33.33,0,0,0,.12-.24.49.49,0,0,0,0-.14A.29.29,0,0,0,31.29,14.37ZM28.1,48.1v-.68c0-.89-.3-1.28-1-1.28h-.93v3.27h.75C27.65,49.41,28.1,49.09,28.1,48.1ZM17.84,30.41a.28.28,0,0,0-.36.14c-.34.83-.66,1.69-.93,2.54a.3.3,0,0,0,0,.21.28.28,0,0,0,.17.13.16.16,0,0,0,.09,0,.28.28,0,0,0,.25-.18,26.63,26.63,0,0,1,.92-2.5.45.45,0,0,0,0-.11A.24.24,0,0,0,17.84,30.41ZM28.3,53.79V52.71c0-1.15-.38-1.51-1.26-1.51h-.86V55h1.11C27.94,55,28.3,54.71,28.3,53.79ZM26.91,17.55c-.68.58-1.35,1.21-2,1.84a.43.43,0,0,0-.07.2.33.33,0,0,0,.09.2.33.33,0,0,0,.18.07.31.31,0,0,0,.2-.09c.61-.61,1.28-1.23,1.94-1.8a.25.25,0,0,0,.09-.2.29.29,0,0,0-.07-.18A.28.28,0,0,0,26.91,17.55Zm-3.79,3.82c-.58.68-1.16,1.4-1.68,2.12a.26.26,0,0,0,.06.38.25.25,0,0,0,.16.06.23.23,0,0,0,.21-.13c.51-.72,1.07-1.4,1.64-2.09a.21.21,0,0,0,.07-.18.28.28,0,0,0-.09-.2A.27.27,0,0,0,23.12,21.37Zm-3.19,4.37c-.45.76-.9,1.55-1.31,2.36a.23.23,0,0,0,0,.2.28.28,0,0,0,.14.16.17.17,0,0,0,.13,0,.28.28,0,0,0,.23-.15c.4-.79.83-1.56,1.3-2.32a.35.35,0,0,0,0-.14.27.27,0,0,0-.12-.24A.29.29,0,0,0,19.93,25.74ZM0,59.62H0s0-.09,0-.14ZM54.63,77.15c-.86.13-1.74.24-2.62.31h0a.26.26,0,0,0-.25.27v0A.27.27,0,0,0,52,78s0,0,0,0c.9-.08,1.8-.18,2.69-.33a.26.26,0,0,0,.23-.3A.27.27,0,0,0,54.63,77.15Zm-5.32.42h0c-.87,0-1.77,0-2.63-.11a.28.28,0,0,0-.29.25v0a.28.28,0,0,0,.25.27c.9.07,1.8.11,2.69.11h0a.26.26,0,0,0,.26-.27A.28.28,0,0,0,49.31,77.57ZM38.87,75.91c-.85-.27-1.7-.58-2.51-.92a.29.29,0,0,0-.36.15.34.34,0,0,0,0,.1.26.26,0,0,0,.16.26c.83.34,1.69.66,2.54.93a.13.13,0,0,0,.09,0,.29.29,0,0,0,.27-.2.35.35,0,0,0,0-.2A.27.27,0,0,0,38.87,75.91ZM81.06,30.42c-.34-.81-.72-1.63-1.14-2.43a.26.26,0,0,0-.36-.1.29.29,0,0,0-.12.16.24.24,0,0,0,0,.2c.39.79.77,1.6,1.11,2.41a.29.29,0,0,0,.25.16s.08,0,.09,0a.3.3,0,0,0,.17-.25.22.22,0,0,0,0-.11Zm-37,46.75c-.88-.14-1.75-.32-2.61-.52a.26.26,0,0,0-.32.2s0,0,0,.05a.29.29,0,0,0,.21.27c.87.22,1.77.38,2.65.52h0a.36.36,0,0,0,.28-.21.31.31,0,0,0-.05-.2A.31.31,0,0,0,44.05,77.17Zm29.2-9.52c-.62.63-1.28,1.22-2,1.8a.25.25,0,0,0-.09.2.4.4,0,0,0,.07.18.33.33,0,0,0,.2.09.16.16,0,0,0,.16-.08c.69-.57,1.35-1.18,2-1.81a.26.26,0,0,0,0-.38A.25.25,0,0,0,73.25,67.65Zm-4,3.44c-.72.52-1.45,1-2.21,1.47a.34.34,0,0,0-.13.24.33.33,0,0,0,0,.14.3.3,0,0,0,.23.13.33.33,0,0,0,.15,0c.77-.49,1.53-1,2.25-1.51a.27.27,0,1,0-.33-.43ZM64.7,73.88c-.78.39-1.61.77-2.42,1.11a.29.29,0,0,0-.16.25.2.2,0,0,0,0,.11.28.28,0,0,0,.25.16.12.12,0,0,0,.09,0c.83-.34,1.64-.72,2.45-1.14a.26.26,0,1,0-.23-.46Zm-4.9,2c-.83.27-1.69.5-2.56.72a.29.29,0,0,0-.21.27v0a.28.28,0,0,0,.27.22s0,0,.07,0c.86-.22,1.73-.47,2.59-.74a.26.26,0,0,0,.18-.34A.27.27,0,0,0,59.8,75.91ZM.35,43.62c-.74-1.19-.18-3.17.88-3.17H6a15.92,15.92,0,0,0,1.8-4.09c.43-2.5-1-5.49-.13-7.83s3.89-3.74,5.13-5.92.95-5.49,2.56-7.4,4.91-2.17,6.84-3.79S25,6.59,27.15,5.33,32.49,5,34.89,4.09,39.1.51,41.6.06s5.15,1.51,7.71,1.51S54.56-.36,57,.08s4.38,3.16,6.72,4,5.58,0,7.74,1.24,3,4.48,4.93,6.08,5.24,1.88,6.84,3.8,1.29,5.22,2.55,7.4S90,26.16,90.9,28.55s-.57,5.33-.12,7.83a16,16,0,0,0,1.81,4.07H97.4c.75,0,1.22.94,1.21,1.91H0a2.69,2.69,0,0,0,.15.83H98.48a1.86,1.86,0,0,1-.2.43L95,48.77A4.28,4.28,0,0,0,95,53l3.24,5.15a2.36,2.36,0,0,1,.27.68H.07a2.08,2.08,0,0,1,.26-.68l3.26-5.22a4.28,4.28,0,0,0,0-4.2ZM68.91,53.81c0,2,1,3.11,2.9,3.11s2.89-1.13,2.89-3.11c0-1.43-.5-2.45-2.14-3.89-1.28-1.12-1.67-1.8-1.67-2.7s.36-1.23,1-1.23,1,.35,1,1.23v.52h1.84v-.4c0-2-1-3.11-2.86-3.11s-2.88,1.13-2.88,3.11c0,1.43.5,2.45,2.14,3.89,1.28,1.12,1.67,1.8,1.67,2.7s-.39,1.21-1,1.21-1-.33-1-1.21v-.88H68.91Zm-6.64,0c0,2,1,3.11,2.89,3.11s2.9-1.13,2.9-3.11c0-1.43-.5-2.45-2.14-3.89-1.28-1.12-1.67-1.8-1.67-2.7s.36-1.23,1-1.23,1,.35,1,1.23v.52H68v-.4c0-2-1-3.11-2.87-3.11s-2.86,1.13-2.86,3.11c0,1.43.51,2.45,2.14,3.89,1.28,1.12,1.68,1.8,1.68,2.7s-.4,1.21-1,1.21-1-.33-1-1.21v-.88H62.27ZM56,56.76h5.31V55H58V51.36h2.69V49.59H58V46.12h3.37V44.36H56Zm-7.56,0h1.75v-9h0l2.4,9h2V44.37H52.91v7.42h0l-2-7.42H48.46Zm-3.37,0H47V44.37H45.09Zm-6.89-3c0,2,1,3.11,2.9,3.11S44,55.79,44,53.81c0-1.43-.51-2.45-2.15-3.89-1.27-1.12-1.67-1.8-1.67-2.7s.36-1.23,1-1.23,1,.35,1,1.23v.52H44v-.4c0-2-1-3.11-2.86-3.11s-2.88,1.13-2.86,3.11c0,1.43.5,2.45,2.14,3.89,1.28,1.12,1.67,1.8,1.67,2.7s-.39,1.21-1,1.21-1-.33-1-1.21v-.88H38.2Zm-6.86,0c0,2,1,3.12,2.9,3.12s2.9-1.14,2.9-3.12V44.37H35.3V54c0,.88-.39,1.21-1,1.21s-1-.33-1-1.21V44.37H31.34Zm-7.11,3h3.06a2.63,2.63,0,0,0,2.95-2.94v-1a2.49,2.49,0,0,0-1.45-2.64v0a2.42,2.42,0,0,0,1.26-2.48v-.45c0-1.91-.87-2.85-2.88-2.85H24.23ZM11.15,40.45H83c-.07-.71-.14-1.43-.26-2.14a.21.21,0,0,1,0-.2A.37.37,0,0,1,83,38a.27.27,0,0,1,.31.24c.12.72.2,1.47.27,2.21h3.9a38.29,38.29,0,0,0-76.31,0ZM98.61,59.62c-.06.88-.53,1.66-1.21,1.66H89.15a17.8,17.8,0,0,0-3.36,3.49c-1.26,2.18-1,5.49-2.55,7.4S78.32,74.34,76.4,76s-2.76,4.83-4.94,6.09-5.34.38-7.74,1.24-4.21,3.58-6.71,4-5.13-1.49-7.69-1.49-5.25,1.92-7.68,1.49-4.38-3.17-6.72-4-5.58,0-7.74-1.24-3-4.48-4.93-6.09S17,74.09,15.41,72.17s-1.29-5.22-2.55-7.4a18.81,18.81,0,0,0-3.38-3.49H1.21c-.68,0-1.13-.79-1.2-1.66ZM83.33,61.28H78.87c-.07.12-.14.25-.22.37a.25.25,0,0,1-.22.15.37.37,0,0,1-.14,0,.26.26,0,0,1-.13-.23.42.42,0,0,1,0-.15l.06-.1h-63a38.31,38.31,0,0,0,68.05,0Zm-.56-25.69c-.22-.86-.47-1.75-.74-2.59a.26.26,0,0,0-.34-.18.28.28,0,0,0-.16.14.23.23,0,0,0,0,.2c.27.83.52,1.69.72,2.56a.29.29,0,0,0,.27.19h0a.28.28,0,0,0,.22-.27Zm-6,28c-.52.72-1.08,1.42-1.66,2.09a.23.23,0,0,0-.07.18.28.28,0,0,0,.09.19.26.26,0,0,0,.18.08.34.34,0,0,0,.22-.09c.57-.69,1.15-1.41,1.67-2.13a.27.27,0,0,0-.05-.38A.28.28,0,0,0,76.72,63.6Zm-45.09,9a.28.28,0,0,0-.38.09.35.35,0,0,0,0,.14.27.27,0,0,0,.12.24c.78.47,1.57.9,2.36,1.31a.17.17,0,0,0,.13,0,.25.25,0,0,0,.23-.16.27.27,0,0,0-.11-.36C33.16,73.48,32.39,73.05,31.63,72.58Zm-8.08-6.86a.28.28,0,0,0-.38,0,.25.25,0,0,0-.09.19.33.33,0,0,0,.07.18c.58.69,1.21,1.35,1.84,2a.33.33,0,0,0,.2.08.19.19,0,0,0,.16-.08.25.25,0,0,0,0-.37C24.72,67.05,24.12,66.39,23.55,65.72Zm3.78,3.73a.29.29,0,0,0-.38,0,.26.26,0,0,0-.07.18.25.25,0,0,0,.09.2c.68.58,1.4,1.15,2.12,1.68a.37.37,0,0,0,.16,0,.23.23,0,0,0,.22-.13.26.26,0,0,0,0-.37C28.7,70.58,28,70,27.33,69.45ZM20.45,61.4a.3.3,0,0,0-.38-.09.33.33,0,0,0-.12.24.22.22,0,0,0,0,.14c.45.76,1,1.51,1.5,2.25a.25.25,0,0,0,.21.11.26.26,0,0,0,.18-.06.27.27,0,0,0,.06-.37C21.41,62.9,20.92,62.16,20.45,61.4Zm7.78-33.78H26.05L24.54,37.1h1.37l.25-1.73H28l.26,1.73h1.49ZM27,29.29h0l.7,4.81H26.34Zm7.7,4.3h-1.4v1.35c0,.67-.31.92-.77.92s-.78-.23-.78-.92V29.81c0-.68.31-.93.78-.93s.77.25.77.93v1h1.4V29.9c0-1.53-.75-2.39-2.21-2.39s-2.21.88-2.21,2.39v4.93c0,1.53.75,2.4,2.21,2.4s2.21-.88,2.21-2.4V33.59Zm5.24,0h-1.4v1.35c0,.67-.31.92-.78.92s-.77-.23-.77-.92V29.81c0-.68.31-.93.77-.93s.78.25.78.93v1H40V29.9c0-1.53-.75-2.39-2.21-2.39s-2.22.88-2.22,2.39v4.93c0,1.53.76,2.4,2.22,2.4S40,36.35,40,34.83V33.59Zm4,3.49h1.52a2.76,2.76,0,0,1-.17-1.15V34.47c0-1-.25-1.69-1-2v0a1.87,1.87,0,0,0,1-1.91v-.74c0-1.45-.67-2.17-2.22-2.17H40.88V37.1h1.5V33.23h.52c.66,0,1,.33,1,1.21v1.49A2.75,2.75,0,0,0,44,37.1ZM43.1,29c.52,0,.75.28.75,1v.93c0,.76-.34,1-.9,1h-.57V29Zm4.73,0H50.4V27.6H46.34v9.48H50.4V35.73H47.83V33h2.05V31.61H47.83Zm3.49,8.15h2.36c1.48,0,2.21-.83,2.21-2.34V30c0-1.52-.72-2.34-2.21-2.34H51.32ZM52.82,29h.84c.47,0,.76.24.76.92v4.93c0,.67-.29.92-.76.92h-.84V29Zm4,8.12h1.49V27.62H56.85ZM59,27.62V29h1.57V37.1H62V29H63.6V27.62H59ZM65.74,29h2.57V27.6H64.25v9.48h4.06V35.73H65.74V33h2.05V31.61H65.74Zm3.51,8.15h2.36c1.47,0,2.21-.83,2.21-2.34V30c0-1.52-.72-2.34-2.21-2.34H69.25ZM70.73,29h.84c.47,0,.76.24.76.92v4.93c0,.67-.29.92-.76.92h-.84V29ZM48.26,15.34l-2.34.32,1.69,1.66-.39,2.34,2.09-1.1,2.08,1.1L51,17.32l1.69-1.66-2.34-.32-1-2.12ZM41,17.68l-1.49.22L40.54,19l-.25,1.47,1.35-.7,1.33.7L42.72,19,43.8,17.9l-1.5-.22-.66-1.35Zm15.36.22-1.5.21,1.08,1.06-.25,1.48L57,20l1.35.7-.25-1.48,1.08-1.06-1.49-.21L57,16.55Zm-7.9,51.62-2.33.34,1.68,1.64-.4,2.3,2.07-1.08,2.09,1.08-.4-2.3,1.68-1.64-2.32-.34-1-2.09Zm-7.31-.58-1.5.22,1.08,1.06-.25,1.5L41.76,71l1.34.71-.26-1.5,1.08-1.06-1.49-.22-.67-1.35Zm15.28-.88-1.48.2,1.07,1-.26,1.48,1.34-.68,1.31.68-.25-1.48,1.08-1-1.5-.2-.64-1.35Z"/></g></g></svg>