<svg xmlns="http://www.w3.org/2000/svg" viewBox="0 0 98.61 87.39"><defs><style>.cls-1{fill:#fff;}</style></defs><title>label-easy-returns</title><g id="Layer_2" data-name="Layer 2"><g id="Layer_1-2" data-name="Layer 1"><path class="cls-1" d="M34.46,11.36A.26.26,0,0,1,34.6,11c.83-.38,1.69-.72,2.54-1a.26.26,0,0,1,.34.17.13.13,0,0,1,0,.09.28.28,0,0,1-.18.25c-.85.3-1.69.65-2.5,1h-.11A.26.26,0,0,1,34.46,11.36Zm5.36-1.67s0,0,.07,0c.87-.23,1.75-.43,2.63-.61a.3.3,0,0,0,.22-.27V8.73a.28.28,0,0,0-.33-.21c-.88.18-1.78.39-2.66.63a.29.29,0,0,0-.18.34A.25.25,0,0,0,39.82,9.69Zm5.35-1h0c.9-.1,1.8-.18,2.7-.21a.27.27,0,0,0,.25-.27v0a.28.28,0,0,0-.28-.25C47,7.92,46,8,45.13,8.1a.37.37,0,0,0-.18.11.35.35,0,0,0-.05.2A.26.26,0,0,0,45.17,8.64ZM29.94,14.13s.11,0,.12-.05c.76-.49,1.53-.95,2.33-1.39a.27.27,0,0,0,.14-.23.33.33,0,0,0,0-.13.26.26,0,0,0-.36-.1c-.81.43-1.6.9-2.35,1.4a.27.27,0,0,0-.08.38A.33.33,0,0,0,29.94,14.13ZM16.31,30.71a.29.29,0,0,0,.24-.14c.32-.83.7-1.66,1.09-2.47a.28.28,0,0,0,0-.12.3.3,0,0,0-.14-.26.29.29,0,0,0-.36.13c-.4.81-.78,1.66-1.12,2.5a.26.26,0,0,0,.14.34A.23.23,0,0,0,16.31,30.71Zm9.31-13.26a.21.21,0,0,0,.16-.06c.68-.59,1.39-1.19,2.09-1.73a.25.25,0,0,0,.05-.37.27.27,0,0,0-.38-.06c-.72.56-1.42,1.14-2.1,1.75a.2.2,0,0,0-.09.18.27.27,0,0,0,.27.29Zm-6.9,8.38a.26.26,0,0,0,.22-.12c.47-.78.95-1.53,1.48-2.27a.33.33,0,0,0,0-.16.28.28,0,0,0-.11-.22.32.32,0,0,0-.38.07c-.52.74-1,1.53-1.49,2.31a.26.26,0,0,0,0,.2.34.34,0,0,0,.13.16A.35.35,0,0,0,18.72,25.83Zm3.14-4.46a.39.39,0,0,0,.21-.09c.58-.68,1.17-1.37,1.8-2,.06,0,.07-.1.07-.18a.28.28,0,0,0-.46-.19c-.63.66-1.25,1.35-1.82,2.05a.29.29,0,0,0,0,.38A.31.31,0,0,0,21.86,21.37ZM61.17,10.46c.86.31,1.69.65,2.52,1a.2.2,0,0,0,.11,0,.33.33,0,0,0,.25-.15.18.18,0,0,0,0-.1A.3.3,0,0,0,63.9,11c-.84-.37-1.69-.72-2.55-1a.26.26,0,0,0-.34.16A.25.25,0,0,0,61.17,10.46Zm15.3,10.73a.25.25,0,0,0,.21.11.21.21,0,0,0,.17-.09.34.34,0,0,0,.09-.22.27.27,0,0,0-.06-.16c-.57-.7-1.19-1.39-1.82-2a.27.27,0,0,0-.37,0,.19.19,0,0,0-.09.18.23.23,0,0,0,.07.19C75.28,19.82,75.89,20.51,76.47,21.19ZM79.6,25.6a.3.3,0,0,0,.23.13l.13,0a.34.34,0,0,0,.13-.24.33.33,0,0,0,0-.14c-.47-.79-1-1.57-1.49-2.3a.27.27,0,0,0-.38-.08.38.38,0,0,0-.11.18.39.39,0,0,0,.05.2C78.65,24.07,79.13,24.83,79.6,25.6ZM82,30.44a.29.29,0,0,0,.25.16.4.4,0,0,1,.11,0,.27.27,0,0,0,.16-.25.45.45,0,0,0,0-.11c-.35-.84-.72-1.69-1.14-2.5a.26.26,0,0,0-.36-.12.25.25,0,0,0-.14.16.24.24,0,0,0,0,.2C81.29,28.79,81.67,29.61,82,30.44ZM45.56,40.54h0l-1,6.91h2.07ZM68.44,14a.33.33,0,0,0,.14,0,.34.34,0,0,0,.24-.11.29.29,0,0,0,0-.14.33.33,0,0,0-.12-.24c-.76-.5-1.57-1-2.36-1.4a.27.27,0,0,0-.36.11.23.23,0,0,0,0,.2.26.26,0,0,0,.13.16C66.91,13.09,67.68,13.56,68.44,14ZM56,9c.88.18,1.76.38,2.62.61a.12.12,0,0,0,.08,0,.24.24,0,0,0,.25-.21.12.12,0,0,0,0-.08.3.3,0,0,0-.2-.25c-.87-.23-1.77-.43-2.67-.61a.26.26,0,0,0-.32.22.21.21,0,0,0,0,.19A.31.31,0,0,0,56,9Zm-5.39-.57c.9,0,1.82.09,2.7.19h0a.27.27,0,0,0,.27-.25v0a.26.26,0,0,0-.23-.27c-.9-.09-1.82-.16-2.74-.19a.25.25,0,0,0-.29.25.48.48,0,0,0,.07.2A.24.24,0,0,0,50.58,8.45ZM72.72,17.3a.22.22,0,0,0,.18.07.2.2,0,0,0,.2-.1.22.22,0,0,0,.07-.18.25.25,0,0,0-.09-.2c-.66-.6-1.38-1.17-2.1-1.73a.29.29,0,0,0-.38.05.21.21,0,0,0,0,.2.32.32,0,0,0,.1.18C71.36,16.13,72.06,16.71,72.72,17.3ZM78.16,64c-.52.72-1.06,1.46-1.64,2.15a.25.25,0,0,0,0,.16.26.26,0,0,0,.09.21.3.3,0,0,0,.18.06.28.28,0,0,0,.21-.09c.58-.7,1.14-1.44,1.66-2.18a.27.27,0,1,0-.45-.31ZM61.24,76.92c-.85.3-1.71.57-2.57.81a.25.25,0,0,0-.2.25v.07a.28.28,0,0,0,.27.2h.07c.88-.23,1.76-.52,2.61-.83a.26.26,0,0,0,.16-.34A.25.25,0,0,0,61.24,76.92Zm9.47-5.17c-.72.54-1.46,1.06-2.22,1.55a.29.29,0,0,0-.12.23.27.27,0,0,0,0,.15.33.33,0,0,0,.24.12.29.29,0,0,0,.14,0c.78-.51,1.53-1,2.25-1.59a.25.25,0,0,0,.06-.37A.27.27,0,0,0,70.71,71.75Zm-20,7.2c-.9,0-1.8,0-2.68,0h0a.3.3,0,0,0-.27.27.26.26,0,0,0,.26.27h0c.44,0,.89,0,1.34,0s.93,0,1.4,0a.26.26,0,0,0,.25-.27A.29.29,0,0,0,50.67,79ZM56,78.32c-.87.18-1.77.31-2.67.42a.26.26,0,0,0-.23.27v0a.28.28,0,0,0,.27.24h0c.92-.11,1.82-.24,2.72-.42a.27.27,0,0,0,.21-.32A.29.29,0,0,0,56,78.32Zm10.13-3.63c-.79.41-1.6.82-2.41,1.18a.28.28,0,0,0-.16.26.18.18,0,0,0,0,.1.3.3,0,0,0,.25.17.23.23,0,0,0,.11,0c.82-.38,1.65-.79,2.44-1.23a.27.27,0,0,0,.11-.36A.26.26,0,0,0,66.17,74.69ZM98.61,53.5c-.06.88-.53,1.66-1.21,1.66H91a7.62,7.62,0,0,1-.12,3.69c-.86,2.37-3.89,3.74-5.13,5.92s-1,5.49-2.55,7.4S78.32,74.34,76.4,76s-2.76,4.83-4.94,6.09-5.34.38-7.74,1.24-4.21,3.58-6.71,4-5.13-1.49-7.69-1.49-5.25,1.92-7.68,1.49-4.38-3.17-6.72-4-5.58,0-7.74-1.24-3-4.48-4.93-6.09S17,74.09,15.41,72.17s-1.29-5.22-2.55-7.4-4.27-3.53-5.13-5.92a7.75,7.75,0,0,1-.11-3.69H1.21c-.68,0-1.13-.79-1.2-1.66ZM85.86,55.16H83.25c-.22.65-.46,1.3-.72,1.94a.24.24,0,0,1-.25.14h-.11A.28.28,0,0,1,82,57a.13.13,0,0,1,0-.09c.23-.56.43-1.14.63-1.72H15.93c.2.59.4,1.18.63,1.76a.28.28,0,0,1-.14.36h-.09a.27.27,0,0,1-.25-.16c-.26-.65-.49-1.31-.71-2H12.75a38.32,38.32,0,0,0,73.11,0Zm-4.93,4.17c-.39.81-.84,1.6-1.29,2.38a.37.37,0,0,0,0,.14.28.28,0,0,0,.13.24.7.7,0,0,0,.14,0A.27.27,0,0,0,80.1,62c.47-.79.9-1.6,1.32-2.41a.27.27,0,0,0-.49-.24Zm-6.21,8.82c-.61.65-1.28,1.28-1.94,1.87a.28.28,0,0,0-.09.2.24.24,0,0,0,.07.18.27.27,0,0,0,.2.09.25.25,0,0,0,.16,0c.68-.61,1.35-1.24,2-1.91a.27.27,0,0,0-.38-.38ZM32.46,74.7a.27.27,0,0,0-.36.11.25.25,0,0,0,0,.13.28.28,0,0,0,.15.23c.81.45,1.63.85,2.46,1.23h.11a.27.27,0,0,0,.25-.14.27.27,0,0,0-.14-.36C34.06,75.53,33.25,75.14,32.46,74.7Zm12.81,4c-.88-.11-1.78-.26-2.66-.42a.27.27,0,0,0-.32.22v0a.26.26,0,0,0,.21.27c.9.18,1.82.31,2.72.42h0a.25.25,0,0,0,.25-.26.18.18,0,0,0-.06-.19A.19.19,0,0,0,45.27,78.74ZM20.45,64a.26.26,0,0,0-.38-.07.24.24,0,0,0-.1.21.28.28,0,0,0,.05.17c.54.73,1.1,1.47,1.67,2.17a.23.23,0,0,0,.2.09.3.3,0,0,0,.16,0,.29.29,0,0,0,0-.38C21.51,65.49,21,64.75,20.45,64ZM0,53.5H0s0-.09,0-.14ZM23.91,68.15a.28.28,0,0,0-.38,0,.33.33,0,0,0-.09.2.24.24,0,0,0,.07.18c.63.67,1.3,1.3,2,1.91a.25.25,0,0,0,.38,0,.27.27,0,0,0,.07-.2.24.24,0,0,0-.09-.18C25.19,69.43,24.52,68.8,23.91,68.15Zm-6.23-8.76a.27.27,0,0,0-.36-.13.24.24,0,0,0-.14.23.25.25,0,0,0,0,.13c.4.83.85,1.64,1.32,2.41a.3.3,0,0,0,.23.13.28.28,0,0,0,.13,0,.27.27,0,0,0,.09-.36C18.51,61,18.08,60.2,17.68,59.39ZM40,77.73c-.86-.24-1.73-.51-2.57-.81a.26.26,0,0,0-.34.16s0,0,0,.09a.26.26,0,0,0,.18.25c.84.31,1.73.6,2.61.83h.07a.27.27,0,0,0,.27-.2A.26.26,0,0,0,40,77.73Zm-12.06-6a.29.29,0,0,0-.38,0,.37.37,0,0,0-.05.17.25.25,0,0,0,.11.21c.74.56,1.47,1.08,2.25,1.59a.49.49,0,0,0,.14,0,.22.22,0,0,0,.22-.14.49.49,0,0,0,0-.2.23.23,0,0,0-.1-.16C29.38,72.83,28.64,72.31,27.92,71.77ZM.35,37.5c-.74-1.19-.18-3.17.88-3.17H7.85c-.19-2-.8-4.07-.16-5.8.86-2.37,3.89-3.74,5.13-5.92s.95-5.49,2.56-7.4,4.91-2.17,6.84-3.79S25,6.59,27.15,5.33,32.49,5,34.89,4.09,39.1.51,41.6.06s5.15,1.51,7.71,1.51S54.56-.36,57,.08s4.38,3.16,6.72,4,5.58,0,7.74,1.24,3,4.48,4.93,6.08,5.24,1.88,6.84,3.8,1.29,5.22,2.55,7.4S90,26.16,90.9,28.55c.63,1.73,0,3.8-.16,5.78H97.4c.75,0,1.22.94,1.21,1.91H0a2.69,2.69,0,0,0,.15.83H98.48a1.86,1.86,0,0,1-.2.43L95,42.65a4.28,4.28,0,0,0,0,4.19L98.28,52a2.36,2.36,0,0,1,.27.68H.07A2.08,2.08,0,0,1,.33,52l3.26-5.22a4.28,4.28,0,0,0,0-4.2Zm56.53.61,2.72,9.14v4.54h2.14V47.25l2.72-9.14h-2l-1.62,6.23h0l-1.62-6.23Zm-6.82,10.4c0,2.18,1.1,3.44,3.21,3.44s3.2-1.24,3.2-3.44c0-1.56-.56-2.7-2.36-4.28-1.4-1.22-1.83-2-1.83-3s.39-1.35,1.08-1.35,1.08.38,1.08,1.35v.56h2v-.43c0-2.18-1.08-3.44-3.17-3.44s-3.17,1.24-3.17,3.44c0,1.56.56,2.7,2.36,4.28,1.41,1.22,1.84,2,1.84,3S53.9,50,53.21,50s-1.11-.36-1.11-1.33v-1h-2Zm-8.21,3.28h2l.38-2.48h2.65l.38,2.48h2.17L47.2,38.11H44.05Zm-6.6,0h5.87V49.85H37.41v-4h3v-2h-3v-3.8h3.71v-2H35.25ZM12.16,34.33h2.57c.13-.47.27-.94.41-1.4a.28.28,0,0,1,.34-.18.26.26,0,0,1,.18.25.17.17,0,0,1,0,.07c-.13.41-.23.84-.34,1.26h68c-.13-.46-.27-.91-.41-1.37a.23.23,0,0,1,0-.2.24.24,0,0,1,.16-.12.26.26,0,0,1,.34.18c.16.49.29,1,.43,1.51h2.59a38.31,38.31,0,0,0-74.29,0ZM32.51,68.19h1.75a3.46,3.46,0,0,1-.18-1.33v-1.7c0-1.15-.29-2-1.15-2.32v0a2.17,2.17,0,0,0,1.13-2.22v-.86c0-1.69-.77-2.52-2.56-2.52H28.89v11h1.73V63.72h.6c.79,0,1.13.38,1.13,1.41v1.73a3.45,3.45,0,0,0,.16,1.35Zm-1-9.42c.61,0,.88.35.88,1.14V61c0,.88-.4,1.17-1,1.17h-.69V58.77Zm5.47,0h3V57.19H35.21v11h4.72V66.62h-3V63.4h2.38V61.83H36.94Zm3.56-1.55v1.56h1.8v9.42H44V58.77h1.8V57.21H40.5Zm6,0v8.37c0,1.76.88,2.77,2.57,2.77s2.57-1,2.57-2.77V57.21H50v8.48c0,.77-.35,1.06-.9,1.06s-.9-.27-.9-1.06V57.21Zm9.93,11H58.2A3.46,3.46,0,0,1,58,66.86v-1.7c0-1.15-.29-2-1.15-2.32v0A2.17,2.17,0,0,0,58,60.59v-.86c0-1.69-.77-2.52-2.56-2.52H52.83v11h1.73V63.72h.6c.79,0,1.13.38,1.13,1.41v1.73a3.45,3.45,0,0,0,.16,1.35Zm-1-9.42c.61,0,.88.35.88,1.14V61c0,.88-.4,1.17-1,1.17h-.69V58.77Zm7.41,9.42h1.79v-11H63.08v6.59h0l-1.75-6.59H59.13v11h1.55v-8h0Zm2.81-8.34c0,1.26.47,2.16,1.91,3.44,1.13,1,1.48,1.59,1.48,2.4s-.35,1.06-.9,1.06-.9-.27-.9-1.06v-.8H65.58v.69c0,1.76.88,2.77,2.57,2.77s2.58-1,2.58-2.77c0-1.26-.47-2.16-1.91-3.44-1.14-1-1.48-1.6-1.48-2.39s.31-1.08.87-1.08.86.28.86,1.08v.45h1.64v-.35c0-1.76-.87-2.77-2.54-2.77S65.63,58.09,65.63,59.85ZM43.19,29.06a2.93,2.93,0,1,0,2.93-2.94A2.93,2.93,0,0,0,43.19,29.06Zm12.78,0a2.93,2.93,0,1,0,2.93-2.94A2.93,2.93,0,0,0,56,29.06Zm9.3-4.23v2.7c0,1-1.06,1-1.06,1H62.79A3.76,3.76,0,0,0,58.92,25a3.87,3.87,0,0,0-4,3.49H50S49.25,25,46.12,25s-3.89,3.52-3.89,3.52H39.14a1,1,0,0,1-1.07-1.15V24.07h3.71a.56.56,0,0,0,.56-.56.57.57,0,0,0-.56-.56H36.33a.56.56,0,1,1,0-1.11h4.39a.56.56,0,0,0,0-1.12h-5.6a.56.56,0,1,1,0-1.11h4.52a.57.57,0,0,0,.56-.56.56.56,0,0,0-.56-.56H34.31a.57.57,0,0,1-.56-.56.57.57,0,0,1,.56-.56h3.75v-.66c0-1.68,1.45-1.5,1.45-1.5h12C53,15.21,53,17,53,17v6.71h.79V18.53c0-1.37,1.46-1.28,1.46-1.28s6.17.7,6.85.75a1.17,1.17,0,0,1,1.16,1s1,4.16,1.06,4.68C65.43,23.69,65.27,24.83,65.27,24.83Zm-16-5.22-2.13-.31-1-1.93-1,1.93-2.12.31,1.53,1.49-.36,2.11,1.89-1,1.89,1-.36-2.11Z"/></g></g></svg>