<svg xmlns="http://www.w3.org/2000/svg" viewBox="0 0 98.61 87.39"><defs><style>.cls-1{fill:#fff;}</style></defs><title>label-free-shipping</title><g id="Layer_2" data-name="Layer 2"><g id="Layer_1-2" data-name="Layer 1"><path class="cls-1" d="M34.46,11.36A.26.26,0,0,1,34.6,11c.83-.38,1.69-.72,2.54-1a.26.26,0,0,1,.34.17.13.13,0,0,1,0,.09.28.28,0,0,1-.18.25c-.85.3-1.69.65-2.5,1h-.11A.26.26,0,0,1,34.46,11.36Zm5.36-1.67s0,0,.07,0c.87-.23,1.75-.43,2.63-.61a.3.3,0,0,0,.22-.27V8.73a.28.28,0,0,0-.33-.21c-.88.18-1.78.39-2.66.63a.29.29,0,0,0-.18.34A.25.25,0,0,0,39.82,9.69Zm-9.88,4.44s.11,0,.12-.05c.76-.49,1.53-.95,2.33-1.39a.27.27,0,0,0,.14-.23.33.33,0,0,0,0-.13.26.26,0,0,0-.36-.1c-.81.43-1.6.9-2.35,1.4a.27.27,0,0,0-.08.38A.33.33,0,0,0,29.94,14.13ZM18.72,25.83a.26.26,0,0,0,.22-.12c.47-.78.95-1.53,1.48-2.27a.33.33,0,0,0,0-.16.28.28,0,0,0-.11-.22.32.32,0,0,0-.38.07c-.52.74-1,1.53-1.49,2.31a.26.26,0,0,0,0,.2.34.34,0,0,0,.13.16A.35.35,0,0,0,18.72,25.83Zm-2.41,4.88a.29.29,0,0,0,.24-.14c.32-.83.7-1.66,1.09-2.47a.28.28,0,0,0,0-.12.3.3,0,0,0-.14-.26.29.29,0,0,0-.36.13c-.4.81-.78,1.66-1.12,2.5a.26.26,0,0,0,.14.34A.23.23,0,0,0,16.31,30.71Zm5.55-9.34a.39.39,0,0,0,.21-.09c.58-.68,1.17-1.37,1.8-2,.06,0,.07-.1.07-.18a.28.28,0,0,0-.46-.19c-.63.66-1.25,1.35-1.82,2.05a.29.29,0,0,0,0,.38A.31.31,0,0,0,21.86,21.37ZM45.17,8.64h0c.9-.1,1.8-.18,2.7-.21a.27.27,0,0,0,.25-.27v0a.28.28,0,0,0-.28-.25C47,7.92,46,8,45.13,8.1a.37.37,0,0,0-.18.11.35.35,0,0,0-.05.2A.26.26,0,0,0,45.17,8.64ZM25.62,17.45a.21.21,0,0,0,.16-.06c.68-.59,1.39-1.19,2.09-1.73a.25.25,0,0,0,.05-.37.27.27,0,0,0-.38-.06c-.72.56-1.42,1.14-2.1,1.75a.2.2,0,0,0-.09.18.27.27,0,0,0,.27.29ZM82,30.44a.29.29,0,0,0,.25.16.4.4,0,0,1,.11,0,.27.27,0,0,0,.16-.25.45.45,0,0,0,0-.11c-.35-.84-.72-1.69-1.14-2.5a.26.26,0,0,0-.36-.12.25.25,0,0,0-.14.16.24.24,0,0,0,0,.2C81.29,28.79,81.67,29.61,82,30.44Zm-5.54-9.25a.25.25,0,0,0,.21.11.21.21,0,0,0,.17-.09.34.34,0,0,0,.09-.22.27.27,0,0,0-.06-.16c-.57-.7-1.19-1.39-1.82-2a.27.27,0,0,0-.37,0,.19.19,0,0,0-.09.18.23.23,0,0,0,.07.19C75.28,19.82,75.89,20.51,76.47,21.19ZM79.6,25.6a.3.3,0,0,0,.23.13l.13,0a.34.34,0,0,0,.13-.24.33.33,0,0,0,0-.14c-.47-.79-1-1.57-1.49-2.3a.27.27,0,0,0-.38-.08.38.38,0,0,0-.11.18.39.39,0,0,0,.05.2C78.65,24.07,79.13,24.83,79.6,25.6ZM46.82,42.83V41.48c0-1-.32-1.41-1.1-1.41h-1v4.2h.85C46.34,44.27,46.82,43.91,46.82,42.83ZM72.72,17.3a.22.22,0,0,0,.18.07.2.2,0,0,0,.2-.1.22.22,0,0,0,.07-.18.25.25,0,0,0-.09-.2c-.66-.6-1.38-1.17-2.1-1.73a.29.29,0,0,0-.38.05.21.21,0,0,0,0,.2.32.32,0,0,0,.1.18C71.36,16.13,72.06,16.71,72.72,17.3ZM61.17,10.46c.86.31,1.69.65,2.52,1a.2.2,0,0,0,.11,0,.33.33,0,0,0,.25-.15.18.18,0,0,0,0-.1A.3.3,0,0,0,63.9,11c-.84-.37-1.69-.72-2.55-1a.26.26,0,0,0-.34.16A.25.25,0,0,0,61.17,10.46ZM56,9c.88.18,1.76.38,2.62.61a.12.12,0,0,0,.08,0,.24.24,0,0,0,.25-.21.12.12,0,0,0,0-.08.3.3,0,0,0-.2-.25c-.87-.23-1.77-.43-2.67-.61a.26.26,0,0,0-.32.22.21.21,0,0,0,0,.19A.31.31,0,0,0,56,9Zm12.47,5a.33.33,0,0,0,.14,0,.34.34,0,0,0,.24-.11.29.29,0,0,0,0-.14.33.33,0,0,0-.12-.24c-.76-.5-1.57-1-2.36-1.4a.27.27,0,0,0-.36.11.23.23,0,0,0,0,.2.26.26,0,0,0,.13.16C66.91,13.09,67.68,13.56,68.44,14ZM50.58,8.45c.9,0,1.82.09,2.7.19h0a.27.27,0,0,0,.27-.25v0a.26.26,0,0,0-.23-.27c-.9-.09-1.82-.16-2.74-.19a.25.25,0,0,0-.29.25.48.48,0,0,0,.07.2A.24.24,0,0,0,50.58,8.45ZM40,77.73c-.86-.24-1.73-.51-2.57-.81a.26.26,0,0,0-.34.16s0,0,0,.09a.26.26,0,0,0,.18.25c.84.31,1.73.6,2.61.83h.07a.27.27,0,0,0,.27-.2A.26.26,0,0,0,40,77.73Zm30.73-6c-.72.54-1.46,1.06-2.22,1.55a.29.29,0,0,0-.12.23.27.27,0,0,0,0,.15.33.33,0,0,0,.24.12.29.29,0,0,0,.14,0c.78-.51,1.53-1,2.25-1.59a.25.25,0,0,0,.06-.37A.27.27,0,0,0,70.71,71.75Zm4-3.6c-.61.65-1.28,1.28-1.94,1.87a.28.28,0,0,0-.09.2.24.24,0,0,0,.07.18.27.27,0,0,0,.2.09.25.25,0,0,0,.16,0c.68-.61,1.35-1.24,2-1.91a.27.27,0,0,0-.38-.38Zm-8.55,6.54c-.79.41-1.6.82-2.41,1.18a.28.28,0,0,0-.16.26.18.18,0,0,0,0,.1.3.3,0,0,0,.25.17.23.23,0,0,0,.11,0c.82-.38,1.65-.79,2.44-1.23a.27.27,0,0,0,.11-.36A.26.26,0,0,0,66.17,74.69Zm-4.93,2.23c-.85.3-1.71.57-2.57.81a.25.25,0,0,0-.2.25v.07a.28.28,0,0,0,.27.2h.07c.88-.23,1.76-.52,2.61-.83a.26.26,0,0,0,.16-.34A.25.25,0,0,0,61.24,76.92ZM.35,37.5c-.74-1.19-.18-3.17.88-3.17H7.85c-.19-2-.8-4.07-.16-5.8.86-2.37,3.89-3.74,5.13-5.92s.95-5.49,2.56-7.4,4.91-2.17,6.84-3.79S25,6.59,27.15,5.33,32.49,5,34.89,4.09,39.1.51,41.6.06s5.15,1.51,7.71,1.51S54.56-.36,57,.08s4.38,3.16,6.72,4,5.58,0,7.74,1.24,3,4.48,4.93,6.08,5.24,1.88,6.84,3.8,1.29,5.22,2.55,7.4S90,26.16,90.9,28.55c.63,1.73,0,3.8-.16,5.78H97.4c.75,0,1.22.94,1.21,1.91H0a2.69,2.69,0,0,0,.15.83H98.48a1.86,1.86,0,0,1-.2.43L95,42.65a4.28,4.28,0,0,0,0,4.19L98.28,52a2.36,2.36,0,0,1,.27.68H.07A2.08,2.08,0,0,1,.33,52l3.26-5.22a4.28,4.28,0,0,0,0-4.2ZM57.59,51.79h5.85V49.85H59.73v-4h3v-2H59.75v-3.8h3.7v-2H57.59Zm-7.2,0h5.85V49.85H52.53v-4h2.95v-2H52.55v-3.8h3.7v-2H50.39Zm-7.85,0h2.14V46.23h.74c1,0,1.4.47,1.4,1.74v2.15a3.91,3.91,0,0,0,.2,1.67v0h2.2A3.93,3.93,0,0,1,49,50.15v-2.1c0-1.44-.34-2.45-1.42-2.9v0A2.7,2.7,0,0,0,49,42.36V41.28c0-2.11-1-3.15-3.18-3.15H42.54Zm-6.73,0H38V46.14h2.77v-2H38V40.07h3.54v-2H35.81ZM12.16,34.33h2.57c.13-.47.27-.94.41-1.4a.28.28,0,0,1,.34-.18.26.26,0,0,1,.18.25.17.17,0,0,1,0,.07c-.13.41-.23.84-.34,1.26h68c-.13-.46-.27-.91-.41-1.37a.23.23,0,0,1,0-.2.24.24,0,0,1,.16-.12.26.26,0,0,1,.34.18c.16.49.29,1,.43,1.51h2.59a38.31,38.31,0,0,0-74.29,0ZM78.16,64c-.52.72-1.06,1.46-1.64,2.15a.25.25,0,0,0,0,.16.26.26,0,0,0,.09.21.3.3,0,0,0,.18.06.28.28,0,0,0,.21-.09c.58-.7,1.14-1.44,1.66-2.18a.27.27,0,1,0-.45-.31ZM98.61,53.5c-.07.88-.53,1.66-1.21,1.66H91a7.62,7.62,0,0,1-.12,3.69c-.86,2.37-3.89,3.74-5.13,5.92s-1,5.49-2.55,7.4S78.32,74.34,76.4,76s-2.76,4.83-4.94,6.09-5.34.38-7.74,1.24-4.21,3.58-6.71,4-5.13-1.49-7.69-1.49-5.25,1.92-7.68,1.49-4.38-3.17-6.72-4-5.58,0-7.74-1.24-3-4.48-4.93-6.09S17,74.09,15.41,72.17s-1.29-5.22-2.55-7.4-4.27-3.53-5.13-5.92a7.75,7.75,0,0,1-.11-3.69H1.21c-.68,0-1.13-.79-1.2-1.66ZM85.86,55.16H83.25c-.22.65-.46,1.3-.72,1.94a.24.24,0,0,1-.25.14h-.11A.28.28,0,0,1,82,57a.13.13,0,0,1,0-.09c.23-.56.43-1.14.63-1.72H15.93c.2.59.4,1.18.63,1.76a.28.28,0,0,1-.14.36h-.09a.27.27,0,0,1-.25-.16c-.26-.65-.49-1.31-.71-2H12.75a38.32,38.32,0,0,0,73.11,0Zm-4.93,4.17c-.39.81-.84,1.6-1.29,2.38a.37.37,0,0,0,0,.14.28.28,0,0,0,.13.24.7.7,0,0,0,.14,0A.27.27,0,0,0,80.1,62c.47-.79.9-1.6,1.32-2.41a.27.27,0,0,0-.49-.24ZM56,78.32c-.87.18-1.77.31-2.67.42a.26.26,0,0,0-.23.27v0a.28.28,0,0,0,.27.24h0c.92-.11,1.82-.24,2.72-.42a.27.27,0,0,0,.21-.32A.29.29,0,0,0,56,78.32ZM50.67,79c-.9,0-1.8,0-2.68,0h0a.3.3,0,0,0-.27.27.26.26,0,0,0,.26.27h0c.44,0,.89,0,1.34,0s.93,0,1.4,0a.26.26,0,0,0,.25-.27A.29.29,0,0,0,50.67,79ZM20.45,64a.26.26,0,0,0-.38-.07.24.24,0,0,0-.1.21.28.28,0,0,0,.05.17c.54.73,1.1,1.47,1.67,2.17a.23.23,0,0,0,.2.09.3.3,0,0,0,.16,0,.29.29,0,0,0,0-.38C21.51,65.49,21,64.75,20.45,64Zm-2.77-4.64a.27.27,0,0,0-.36-.13.24.24,0,0,0-.14.23.25.25,0,0,0,0,.13c.4.83.85,1.64,1.32,2.41a.3.3,0,0,0,.23.13.28.28,0,0,0,.13,0,.27.27,0,0,0,.09-.36C18.51,61,18.08,60.2,17.68,59.39ZM0,53.5H0s0-.09,0-.14ZM32.46,74.7a.27.27,0,0,0-.36.11.25.25,0,0,0,0,.13.28.28,0,0,0,.15.23c.81.45,1.63.85,2.46,1.23h.11a.27.27,0,0,0,.25-.14.27.27,0,0,0-.14-.36C34.06,75.53,33.25,75.14,32.46,74.7Zm12.81,4c-.88-.11-1.78-.26-2.66-.42a.27.27,0,0,0-.32.22v0a.26.26,0,0,0,.21.27c.9.18,1.82.31,2.72.42h0a.25.25,0,0,0,.25-.26.18.18,0,0,0-.06-.19A.19.19,0,0,0,45.27,78.74ZM23.91,68.15a.28.28,0,0,0-.38,0,.33.33,0,0,0-.09.2.24.24,0,0,0,.07.18c.63.67,1.3,1.3,2,1.91a.25.25,0,0,0,.38,0,.27.27,0,0,0,.07-.2.24.24,0,0,0-.09-.18C25.19,69.43,24.52,68.8,23.91,68.15Zm6.23,5.17c-.76-.49-1.5-1-2.22-1.55a.29.29,0,0,0-.38,0,.37.37,0,0,0-.05.17.25.25,0,0,0,.11.21c.74.56,1.47,1.08,2.25,1.59a.49.49,0,0,0,.14,0,.22.22,0,0,0,.22-.14.49.49,0,0,0,0-.2A.23.23,0,0,0,30.14,73.32ZM27.72,59.94c0,1.28.47,2.22,2,3.53,1.15,1,1.51,1.62,1.51,2.45s-.36,1.1-.92,1.1-.92-.29-.92-1.1v-.81H27.67v.7c0,1.82.9,2.85,2.65,2.85s2.64-1,2.64-2.85c0-1.28-.47-2.21-1.94-3.53-1.15-1-1.51-1.62-1.51-2.44s.32-1.12.88-1.12.88.31.88,1.12v.46h1.67v-.36c0-1.81-.88-2.84-2.61-2.84S27.72,58.13,27.72,59.94Zm8,3.75h2v4.84h1.8V57.24h-1.8v4.85h-2V57.24H34V68.53h1.78Zm5.13,4.84h1.78V57.23H40.88Zm5.65-11.29H43.92V68.53h1.79V64.28h.84c1.78,0,2.65-1,2.65-2.79V60C49.2,58.22,48.33,57.23,46.53,57.24Zm0,1.61c.56,0,.87.25.87,1.06V61.6c0,.81-.31,1.06-.87,1.06h-.84V58.85Zm6.09-1.61H50V68.53h1.76V64.28h.85c1.78,0,2.64-1,2.64-2.79V60C55.28,58.22,54.42,57.23,52.64,57.24Zm0,1.61c.55,0,.86.25.86,1.06V61.6c0,.81-.31,1.06-.86,1.06h-.85V58.85Zm3.47,9.68h1.78V57.23H56.11Zm6.86,0h1.82V57.24H63.2V64h0l-1.79-6.77H59.15V68.53h1.6V60.34h0Zm5.76-4.68h.81v2.09c0,.81-.36,1.1-.92,1.1s-.92-.29-.92-1.1v-6.1c0-.81.36-1.12.92-1.12s.92.31.92,1.12V61h1.67v-1.1c0-1.81-.9-2.84-2.64-2.84s-2.65,1-2.65,2.84v5.87c0,1.82.9,2.85,2.65,2.85s2.64-1,2.64-2.85V62.23H68.73ZM43.19,29.06a2.93,2.93,0,1,0,2.93-2.94A2.93,2.93,0,0,0,43.19,29.06Zm12.78,0a2.93,2.93,0,1,0,2.93-2.94A2.93,2.93,0,0,0,56,29.06Zm9.3-4.23v2.7c0,1-1.06,1-1.06,1H62.79A3.76,3.76,0,0,0,58.92,25a3.87,3.87,0,0,0-4,3.49H50S49.25,25,46.12,25s-3.89,3.52-3.89,3.52H39.14a1,1,0,0,1-1.07-1.15V24.07h3.71a.56.56,0,0,0,.56-.56.57.57,0,0,0-.56-.56H36.33a.56.56,0,1,1,0-1.11h4.39a.56.56,0,0,0,0-1.12h-5.6a.56.56,0,1,1,0-1.11h4.52a.57.57,0,0,0,.56-.56.56.56,0,0,0-.56-.56H34.31a.57.57,0,0,1-.56-.56.57.57,0,0,1,.56-.56h3.75v-.66c0-1.68,1.45-1.5,1.45-1.5h12C53,15.21,53,17,53,17v6.71h.79V18.53c0-1.37,1.46-1.28,1.46-1.28s6.17.7,6.85.75a1.17,1.17,0,0,1,1.16,1s1,4.16,1.06,4.68C65.43,23.69,65.27,24.83,65.27,24.83Zm-16-5.22-2.13-.31-1-1.93-1,1.93-2.12.31,1.53,1.49-.36,2.11,1.89-1,1.89,1-.36-2.11Z"/></g></g></svg>