<svg xmlns="http://www.w3.org/2000/svg" viewBox="0 0 72.88 87.44"><defs><style>.cls-1{fill:#fff;}</style></defs><title>label-secure</title><g id="Layer_2" data-name="Layer 2"><g id="Layer_1-2" data-name="Layer 1"><path class="cls-1" d="M70.81,11.61l2.07-3.42L69.19,6.61A80.36,80.36,0,0,0,37.08,0h-1.3A80.46,80.46,0,0,0,3.65,6.61L0,8.19l2,3.42c0,.07,4.5,8.12,2.21,23.54-2.7,10-3.55,17.84.47,26,4.17,8.46,13.37,16.32,29.81,25.48.12.08.39.22,1.17.62l.37.19h.44a2.43,2.43,0,0,0,1.35-.5,3.48,3.48,0,0,0,.52-.31c16.43-9.16,25.61-17,29.79-25.48,4-8.16,3.17-16,.47-26C66.35,19.94,70.65,11.92,70.81,11.61ZM65.18,35.89C70,53.75,69.43,65.32,36.49,83.66c0,0-.06.06-.08,0s-.07,0-.07,0C3.42,65.32,2.81,53.77,7.67,35.89,10.3,18.52,5,9.83,5,9.83A77.32,77.32,0,0,1,36.41,3.51,77.27,77.27,0,0,1,67.79,9.83S62.55,18.52,65.18,35.89ZM35.93,68.33,37,70.47l2.38.34L37.64,72.5l.41,2.36-2.12-1.11-2.14,1.11.41-2.36-1.73-1.69,2.4-.34ZM28.13,68l.67,1.39,1.53.21-1.1,1.06.25,1.52-1.35-.71-1.36.71L27,70.61l-1.1-1.06,1.51-.21Zm15.59-.36L44.39,69l1.53.23-1.1,1.06.25,1.52-1.35-.72-1.37.72.27-1.52-1.09-1.06L43,69ZM19.35,11.07a2.09,2.09,0,0,0,2.34-1.71h1.44V23H21V12.58H19.33V11.07Zm7.15,1.55c0-2.18,1.15-3.42,3.24-3.42S33,10.44,33,12.62v7.05c0,2.18-1.16,3.42-3.24,3.42s-3.24-1.24-3.24-3.42Zm2.14,7.2c0,1,.43,1.33,1.1,1.33s1.09-.36,1.09-1.33V12.49c0-1-.43-1.33-1.09-1.33s-1.1.36-1.1,1.33Zm6.51-7.2c0-2.18,1.16-3.42,3.24-3.42s3.24,1.24,3.24,3.42v7.05c0,2.18-1.15,3.42-3.24,3.42s-3.24-1.24-3.24-3.42Zm2.13,7.2c0,1,.43,1.33,1.1,1.33s1.09-.36,1.09-1.33V12.49c0-1-.43-1.33-1.09-1.33s-1.1.36-1.1,1.33Zm6.59-8.39a2.05,2.05,0,1,1,4.1,0v4.46a2.05,2.05,0,1,1-4.1,0ZM45.22,16c0,.6.25.85.7.85s.7-.25.7-.85V11.34c0-.59-.27-.85-.7-.85s-.7.26-.7.85Zm6.06-6.64h1.26L47.2,23H45.94Zm-.68,7a2.05,2.05,0,1,1,4.1,0v4.46a2.05,2.05,0,1,1-4.1,0ZM52,21c0,.59.25.85.7.85s.7-.26.7-.85V16.31c0-.6-.27-.85-.7-.85s-.7.25-.7.85ZM20.66,26.32c1.55,0,2.34.91,2.34,2.53v.33H21.49v-.42c0-.72-.29-1-.79-1s-.79.27-.79,1S20.23,30,21.26,31C22.59,32.13,23,33,23,34.11c0,1.62-.81,2.54-2.35,2.54s-2.36-.92-2.36-2.54V33.5h1.49v.72c0,.72.33,1,.83,1s.83-.25.83-1-.33-1.28-1.35-2.2c-1.33-1.17-1.75-2-1.75-3.15C18.32,27.23,19.12,26.32,20.66,26.32Zm5.57,4.37H28.4v1.44H26.23v2.95H29v1.44H24.64V26.44H29v1.44H26.23Zm9,2.07v1.33c0,1.62-.81,2.54-2.36,2.54s-2.35-.92-2.35-2.54V28.84c0-1.62.81-2.54,2.35-2.54s2.36.92,2.36,2.54v1H33.77V28.73c0-.72-.33-1-.83-1s-.83.27-.83,1v5.45c0,.72.33,1,.83,1s.83-.25.83-1V32.74h1.49Zm3.21-6.32v7.8c0,.72.32,1,.82,1s.83-.25.83-1v-7.8h1.5v7.69c0,1.62-.81,2.54-2.36,2.54s-2.36-.92-2.36-2.54V26.44Zm8.26,10.08a2.93,2.93,0,0,1-.15-1.24V33.7c0-.94-.32-1.28-1-1.28H45v4.1H43.42V26.44h2.39c1.64,0,2.36.76,2.36,2.32v.8a2,2,0,0,1-1.05,2v0c.8.32,1.05,1.08,1.05,2.14v1.56a3,3,0,0,0,.18,1.23H46.73ZM45,27.88V31h.61c.6,0,1-.25,1-1.06v-1c0-.72-.26-1.05-.81-1.05Zm6.52,2.81h2.17v1.44H51.52v2.95h2.73v1.44H49.93V26.44h4.32v1.44H51.52Zm-32.91,12A2.38,2.38,0,0,1,21.17,40a2.37,2.37,0,0,1,2.55,2.7v5.58A2.38,2.38,0,0,1,21.17,51a2.38,2.38,0,0,1-2.56-2.7ZM20.3,48.4c0,.78.35,1.06.89,1.06s.88-.28.88-1.06V42.61c0-.78-.34-1.07-.88-1.07s-.89.29-.89,1.07Zm6.83-5.29h0v7.78H25.58V40.16h2.1l1.71,6.42h0V40.16h1.49V50.89H29.2Zm5.77-3h1.7v9.2h2.77v1.53H32.9Zm6,0h1.69V50.89H38.86Zm5.22,3h0v7.78H42.53V40.16h2.13l1.71,6.42h0V40.16h1.5V50.89H46.17Zm7.45,1.57h2.33v1.53H51.53v3.15h2.92v1.53H49.86V40.16h4.59v1.53H51.53ZM20,54.16c1.2,0,1.81.72,1.81,2v.25H20.66v-.32c0-.56-.23-.77-.61-.77s-.61.21-.61.77.25,1,1.06,1.71a3,3,0,0,1,1.37,2.47c0,1.26-.63,2-1.85,2a1.73,1.73,0,0,1-1.86-2v-.51h1.17v.56c0,.56.25.77.65.77s.65-.19.65-.77-.25-1-1.06-1.71a3,3,0,0,1-1.37-2.47C18.2,54.88,18.81,54.16,20,54.16Zm4.33,8H23.11V54.23h1.24v3.39h1.41V54.23H27v7.89H25.76V58.73H24.35Zm4-6a1.87,1.87,0,1,1,3.74,0v4.11a1.87,1.87,0,1,1-3.74,0Zm1.24,4.18c0,.56.25.77.65.77s.64-.21.64-.77V56.07c0-.56-.25-.77-.64-.77s-.65.21-.65.77Zm7.54-4.12v1c0,1.26-.61,2-1.85,2h-.6v2.95H33.48V54.23H35.3A1.71,1.71,0,0,1,37.17,56.2Zm-2.43-.83V58h.59c.4,0,.62-.18.62-.74V56.11c0-.56-.22-.74-.62-.74ZM42,56.2v1a1.7,1.7,0,0,1-1.86,2h-.59v2.95H38.29V54.23H40.1A1.73,1.73,0,0,1,42,56.2Zm-2.43-.83V58h.59c.4,0,.61-.18.61-.74V56.11c0-.56-.21-.74-.61-.74Zm3.56-1.12h1.24v7.89H43.11Zm3.83,2.16h0v5.71H45.81V54.23h1.55L48.6,59h0V54.23h1.1v7.89H48.44ZM53,57.73h1.73v2.5a1.73,1.73,0,0,1-1.86,2c-1.22,0-1.85-.72-1.85-2V56.14c0-1.26.63-2,1.85-2a1.73,1.73,0,0,1,1.86,2v.78H53.59v-.85c0-.56-.26-.77-.65-.77s-.65.21-.65.77v4.25c0,.56.25.77.65.77s.65-.2.65-.77V58.86H53Z"/></g></g></svg>