<svg xmlns="http://www.w3.org/2000/svg" viewBox="0 0 675 586.68"><defs><style>.cls-1{fill:none;}.cls-2,.cls-5{fill:#272727;}.cls-3{fill:#436aad;}.cls-4{fill:#fff;}.cls-5,.cls-6{fill-rule:evenodd;}.cls-6{fill:#f8f64f;}.cls-7{fill:#dc4b43;}</style></defs><title>pathes-icon</title><g id="Layer_2" data-name="Layer 2"><g id="Capa_1" data-name="Capa 1"><rect class="cls-1" width="675" height="586.68"/><circle class="cls-2" cx="133.36" cy="231.65" r="126.2" transform="translate(-102.6 357.23) rotate(-88.09)"/><path class="cls-3" d="M133.36,364C60.37,364,1,304.63,1,231.65A132.5,132.5,0,0,1,133.36,99.29c73,0,132.36,59.37,132.36,132.36S206.34,364,133.36,364Zm0-252.41a120,120,0,1,0,120,120.05A120.18,120.18,0,0,0,133.36,111.6Z"/><path class="cls-4" d="M130.83,328.62a97.89,97.89,0,0,1-19-2.37l3.85-17a80.12,80.12,0,0,0,15.61,1.94ZM150,327.23,147,310a79.65,79.65,0,0,0,15.15-4.2l6.31,16.27A96.94,96.94,0,0,1,150,327.23Zm-56.34-7.07A97.19,97.19,0,0,1,77,310.6l10.16-14.19a79.34,79.34,0,0,0,13.63,7.83Zm91.93-6.73-9.39-14.7A81,81,0,0,0,188.5,289l12.1,12.58A97.77,97.77,0,0,1,185.54,313.43ZM62.58,298a97.31,97.31,0,0,1-11.67-15.21l14.83-9.2A79.7,79.7,0,0,0,75.31,286ZM213,287l-14.32-10a79.17,79.17,0,0,0,7.66-13.72l16,6.94A97.09,97.09,0,0,1,213,287ZM42.44,265.53A96.89,96.89,0,0,1,37.56,247l17.23-2.74a80.44,80.44,0,0,0,4,15.2ZM228.23,252l-17.07-3.64a79.52,79.52,0,0,0,1.75-15.62l17.44.21A96.75,96.75,0,0,1,228.23,252ZM53.87,228.52l-17.44-.65a97.57,97.57,0,0,1,2.62-19L56,213A79.43,79.43,0,0,0,53.87,228.52ZM211.58,217a79.38,79.38,0,0,0-4.41-15.1l16.19-6.53a98.27,98.27,0,0,1,5.37,18.41ZM61.2,198.13l-15.82-7.38a97.63,97.63,0,0,1,9.77-16.49l14.06,10.33A79.69,79.69,0,0,0,61.2,198.13ZM199.87,188A81,81,0,0,0,190,175.76l12.43-12.25a98.91,98.91,0,0,1,12.06,14.89ZM79.75,172.88,68,160a98.22,98.22,0,0,1,15.36-11.47l9,14.94A81.64,81.64,0,0,0,79.75,172.88Zm98.12-7.15A79.39,79.39,0,0,0,164,158.24l6.75-16.1a97.5,97.5,0,0,1,16.87,9.13Zm-71.32-9-5.88-16.43a96.34,96.34,0,0,1,18.63-4.63l2.5,17.26A79.88,79.88,0,0,0,106.55,156.74Zm42.46-3.1a80.16,80.16,0,0,0-15.65-1.53V134.65a97.25,97.25,0,0,1,19.07,1.88Z"/><path class="cls-5" d="M252.11,181c-40.79-1.52-84.7,7.65-120.12,20.87q-.94,39.93-1.9,79.86c-2.57,109.5,36,176.59,122,212.2,86-35.61,124.6-102.7,122-212.2q-.94-39.93-1.9-79.86C336.82,188.63,292.91,179.46,252.11,181Z"/><path class="cls-3" d="M252.11,500.57l-2.36-1c-88.47-36.64-128.44-105.92-125.81-218l2-84,3.9-1.46c39.89-14.87,84.51-22.58,122.28-21.25,37.84-1.25,82.4,6.38,122.28,21.25l3.91,1.46,2,84C382.92,393.68,343,463,254.47,499.6ZM138,206.18l-1.79,75.67c-2.48,105.35,34.36,170.69,115.86,205.38,81.52-34.69,118.35-100,115.87-205.38l-1.79-75.66c-37.48-13.43-78.8-20.35-113.85-19.06l-.23,0-.23,0C216.85,185.85,175.51,192.76,138,206.18Z"/><path class="cls-5" d="M168.58,229q-.63,26.78-1.27,53.55c-1.82,77.51,16.93,136.25,84.8,170.43,67.88-34.18,86.63-92.92,84.81-170.43q-.63-26.77-1.27-53.55c-26.63-7.52-55.49-11.84-82.15-10.85l-1.39,0-1.38,0C224.07,217.19,195.21,221.51,168.58,229Z"/><path class="cls-3" d="M252.11,459.91l-2.76-1.4c-63.12-31.78-90.31-86.08-88.19-176.07l1.37-58.1,4.37-1.24C196,214.9,224.93,211,251,212l1.36,0,.95,0c25.94-1,55,2.87,84,11.07l4.37,1.24,1.38,58.1c2.11,90-25.09,144.29-88.2,176.07ZM174.62,233.75l-1.15,49c-2,84.4,21.56,133.47,78.64,163.37,57.09-29.9,80.64-79,78.65-163.37l-1.15-49c-26.4-7-52.55-10.22-75.88-9.42l-1.4.06-1.81,0C227.12,223.42,201,226.72,174.62,233.75Z"/><path class="cls-6" d="M282,309.32a10.87,10.87,0,0,0,10.88-10.87V286a20,20,0,0,0-20-19.94H232.81A20,20,0,0,0,212.87,286v68.37a20,20,0,0,0,19.94,19.95h40.13a20,20,0,0,0,20-19.95V341.93a10.88,10.88,0,0,0-21.76,0v10.63H234.62V287.81h36.52v10.64A10.87,10.87,0,0,0,282,309.32"/><rect class="cls-2" x="312.76" y="92.26" width="355.08" height="238.96"/><path class="cls-3" d="M674,337.38H306.6V86.11H674ZM318.92,325.07H661.69V98.42H318.92Z"/><path class="cls-7" d="M388.59,174.74a8.7,8.7,0,0,1-6.17-2.56l-11.53-11.54-11.53,11.54A8.73,8.73,0,0,1,347,159.84l11.53-11.53L347,136.77a8.73,8.73,0,0,1,12.34-12.34L370.89,136l11.53-11.53a8.73,8.73,0,1,1,12.34,12.34l-11.53,11.54,11.53,11.53a8.73,8.73,0,0,1-6.17,14.9Z"/><path class="cls-7" d="M457.85,174.74a8.74,8.74,0,0,1-6.18-2.56l-11.52-11.54-11.53,11.54a8.73,8.73,0,0,1-12.34-12.34l11.53-11.53-11.53-11.54a8.73,8.73,0,0,1,12.34-12.34L440.15,136l11.52-11.53A8.73,8.73,0,1,1,464,136.77l-11.54,11.54L464,159.84a8.73,8.73,0,0,1-6.17,14.9Z"/><path class="cls-7" d="M388.59,239.64a8.7,8.7,0,0,1-6.17-2.56l-11.53-11.53-11.53,11.53A8.73,8.73,0,1,1,347,224.74l11.53-11.53L347,201.69a8.73,8.73,0,1,1,12.34-12.35l11.53,11.54,11.53-11.54a8.73,8.73,0,1,1,12.34,12.35l-11.53,11.52,11.53,11.53a8.73,8.73,0,0,1-6.17,14.9Z"/><path class="cls-7" d="M457.85,239.64a8.74,8.74,0,0,1-6.18-2.56l-11.52-11.53-11.53,11.53a8.73,8.73,0,1,1-12.34-12.34l11.53-11.53-11.53-11.52a8.73,8.73,0,1,1,12.34-12.35l11.53,11.54,11.52-11.54A8.73,8.73,0,1,1,464,201.69l-11.54,11.52L464,224.74a8.73,8.73,0,0,1-6.17,14.9Z"/><path class="cls-3" d="M627.41,136.77H491.46a6.16,6.16,0,0,1,0-12.32h136a6.16,6.16,0,1,1,0,12.32Z"/><path class="cls-3" d="M627.41,169.22H491.46a6.16,6.16,0,0,1,0-12.31h136a6.16,6.16,0,1,1,0,12.31Z"/><path class="cls-3" d="M627.41,201.67H491.46a6.16,6.16,0,0,1,0-12.31h136a6.16,6.16,0,1,1,0,12.31Z"/><path class="cls-3" d="M627.41,234.13H491.46a6.16,6.16,0,0,1,0-12.32h136a6.16,6.16,0,1,1,0,12.32Z"/><path class="cls-3" d="M627.41,266.58H353.18a6.16,6.16,0,0,1,0-12.31H627.41a6.16,6.16,0,1,1,0,12.31Z"/><path class="cls-3" d="M627.41,299H353.18a6.16,6.16,0,0,1,0-12.31H627.41a6.16,6.16,0,1,1,0,12.31Z"/></g></g></svg>