<svg xmlns="http://www.w3.org/2000/svg" viewBox="0 0 675 586.68"><defs><style>.cls-1{fill:none;}.cls-2,.cls-7{fill:#272727;}.cls-3{fill:#436aad;}.cls-4{fill:#fff;}.cls-5,.cls-6{fill:#dc4b43;}.cls-6,.cls-7{fill-rule:evenodd;}</style></defs><title>plus-icon</title><g id="Layer_2" data-name="Layer 2"><g id="Capa_1" data-name="Capa 1"><rect class="cls-1" width="675" height="586.68"/><rect class="cls-2" x="11" y="164.45" width="562.94" height="267.9"/><path class="cls-3" d="M563.94,174.45V422.34H21V174.45H563.94m20-20H1V442.34H583.94V154.45Z"/><path class="cls-4" d="M273.83,343.93l20.26-2.47V260.27h-20.5V246.52l44.46-8.07v103l20.26,2.47v14.41H273.83Z"/><polygon class="cls-5" points="501.79 292.73 473.62 292.73 473.62 264.56 462 264.56 462 292.73 433.83 292.73 433.83 304.34 462 304.34 462 332.52 473.62 332.52 473.62 304.34 501.79 304.34 501.79 292.73"/><path class="cls-6" d="M538.12,236l-23.2,23.21a10.45,10.45,0,0,1-14.78-14.77l23.21-23.21A10.44,10.44,0,0,1,538.12,236Zm-70.21,12.67a10.44,10.44,0,0,1-10.44-10.44V205.42a10.45,10.45,0,0,1,20.89,0v32.82A10.45,10.45,0,0,1,467.91,248.68Zm-41.61,18.4a10.4,10.4,0,0,1-7.38-3.06l-23.21-23.2a10.44,10.44,0,0,1,14.77-14.77l23.21,23.2a10.45,10.45,0,0,1-7.39,17.83Zm-8,31.17a10.45,10.45,0,0,1-10.44,10.44H375.08a10.45,10.45,0,1,1,0-20.89H407.9A10.44,10.44,0,0,1,418.34,298.25Zm-4.23,32.23a10.44,10.44,0,0,1,14.77,14.77l-23.21,23.2a10.44,10.44,0,1,1-14.77-14.77Z"/><rect class="cls-4" x="83.15" y="292.73" width="67.96" height="11.61"/><path class="cls-6" d="M671.72,472.55l-46.33-45.5,33.05-18.75a7.59,7.59,0,0,0-1-13.72L510,336.83a7.89,7.89,0,0,0-8.39,1.7,7.55,7.55,0,0,0-1.73,8.24l58.79,144.77a7.85,7.85,0,0,0,14,1l19.09-32.46,46.33,45.5a7.88,7.88,0,0,0,11,0l22.61-22.21A7.55,7.55,0,0,0,671.72,472.55Z"/><path class="cls-7" d="M643.6,489.35l-48-47.14A7.89,7.89,0,0,0,590.1,440a7,7,0,0,0-1,.07,7.78,7.78,0,0,0-5.73,3.75l-16.13,27.44-46.14-113.6,115.67,45.31-27.94,15.85a7.63,7.63,0,0,0-3.83,5.63,7.55,7.55,0,0,0,2.21,6.4l48,47.14Z"/></g></g></svg>