<svg xmlns="http://www.w3.org/2000/svg" viewBox="0 0 62 62.06"><defs><style>.cls-1{fill:none;}.cls-2{fill:#436aad;}.cls-3{fill:#272727;}.cls-4{fill:#dc4b43;fill-rule:evenodd;}</style></defs><title>price-tag-icon</title><g id="Layer_2" data-name="Layer 2"><g id="Capa_1" data-name="Capa 1"><rect class="cls-1" width="62" height="62.06"/><path class="cls-2" d="M60.21,1.33a1,1,0,0,0-1.42,0L55.09,5H31.8L2.53,34.54a3.55,3.55,0,0,0-1,2.5,3.51,3.51,0,0,0,1,2.49L23,60a3.5,3.5,0,0,0,2.49,1A3.56,3.56,0,0,0,28,60L56.5,30.72V6.45l3.71-3.71A1,1,0,0,0,60.21,1.33Z"/><path class="cls-3" d="M54.5,29.91,26.57,58.59a1.54,1.54,0,0,1-2.16,0L4,38.12A1.53,1.53,0,0,1,4,36L32.64,7H53.09l-4.84,4.84A4.91,4.91,0,0,0,45.5,11a5,5,0,1,0,4.17,2.25L54.5,8.45Z"/><path class="cls-3" d="M48.5,16a3,3,0,1,1-3-3,3,3,0,0,1,1.28.3l-2,2a1,1,0,0,0,0,1.41,1,1,0,0,0,1.42,0l2-2A2.9,2.9,0,0,1,48.5,16Z"/><path class="cls-4" d="M42.9,31.61a9.42,9.42,0,0,1-1.3,1.1,7.52,7.52,0,0,1-1.49.81l-1.39-1.86A8.15,8.15,0,0,0,40,30.92a8.57,8.57,0,0,0,1.17-1,2.52,2.52,0,0,0,.73-2.15,4.58,4.58,0,0,0-1.55-2.6L40.17,25A3.56,3.56,0,0,1,40,26.62,3.78,3.78,0,0,1,39.18,28a4.37,4.37,0,0,1-3.47,1.47A5.9,5.9,0,0,1,32,27.58a5.71,5.71,0,0,1-1.84-3.89,5,5,0,0,1,1.49-3.86,5,5,0,0,1,3.94-1.65A6.79,6.79,0,0,1,40,20.38l2.46,2.4a6.53,6.53,0,0,1,2.26,4.54A5.77,5.77,0,0,1,42.9,31.61Zm-4.19-8L37.5,22.38A4.76,4.76,0,0,0,35.18,21a1.92,1.92,0,0,0-1.8.55A1.82,1.82,0,0,0,33,23.3a4.17,4.17,0,0,0,1.2,2,4.27,4.27,0,0,0,2,1.21,1.73,1.73,0,0,0,1.7-.52,3,3,0,0,0,.75-1.2A2.47,2.47,0,0,0,38.71,23.57Zm-4.54,7.68a6.55,6.55,0,0,1,2.26,4.55,5.75,5.75,0,0,1-1.79,4.28,8.38,8.38,0,0,1-1.31,1.1,7.19,7.19,0,0,1-1.48.81l-1.39-1.86a8.12,8.12,0,0,0,1.27-.73,8.69,8.69,0,0,0,1.17-1,2.51,2.51,0,0,0,.73-2.15,4.61,4.61,0,0,0-1.55-2.6l-.17-.17a3.6,3.6,0,0,1-.14,1.64,3.67,3.67,0,0,1-.85,1.38A4.39,4.39,0,0,1,27.45,38a6,6,0,0,1-3.75-1.9,5.73,5.73,0,0,1-1.84-3.89,5,5,0,0,1,1.49-3.87,5.06,5.06,0,0,1,3.94-1.64,6.73,6.73,0,0,1,4.42,2.19ZM30.45,32l-1.21-1.18a4.76,4.76,0,0,0-2.32-1.41,1.88,1.88,0,0,0-1.8.55,1.78,1.78,0,0,0-.41,1.77,4.15,4.15,0,0,0,1.2,2,4.27,4.27,0,0,0,2,1.21,1.75,1.75,0,0,0,1.7-.52,3,3,0,0,0,.75-1.21A2.47,2.47,0,0,0,30.45,32Zm-7.77,4.31-2.15,2.21a3.21,3.21,0,0,0-1.79-1,1.71,1.71,0,0,0-1.5.54,1.73,1.73,0,0,0-.59,1.38,2.15,2.15,0,0,0,.7,1.33,2,2,0,0,0,1.33.61,5,5,0,0,0,2-.54,11.31,11.31,0,0,1,3.94-1.14,3.9,3.9,0,0,1,3,1.27A4,4,0,0,1,28.91,44a5.13,5.13,0,0,1-1.23,3.2l1.54,1.51L28,49.89,26.48,48.4a5.58,5.58,0,0,1-3.38,1.39,4.6,4.6,0,0,1-3.49-1.61l0-.06,2.16-2.21a2.74,2.74,0,0,0,2,1,2.39,2.39,0,0,0,1.64-.77A2.08,2.08,0,0,0,26,44.66a1.94,1.94,0,0,0-.65-1.36A2.07,2.07,0,0,0,24,42.65a4.8,4.8,0,0,0-1.95.52,10.71,10.71,0,0,1-3.9,1.19,4,4,0,0,1-3-1.3,4.06,4.06,0,0,1-1.33-2.93A5,5,0,0,1,15,36.92l-1.67-1.63,1.2-1.24,1.7,1.66a4.6,4.6,0,0,1,3.23-1,5,5,0,0,1,3.19,1.61Z"/></g></g></svg>