<svg xmlns="http://www.w3.org/2000/svg" viewBox="0 0 62 62.06"><defs><style>.cls-1{fill:none;}.cls-2{fill:#272727;stroke:#436aad;stroke-miterlimit:22.93;stroke-width:2.13px;}.cls-3{fill:#dc4b43;fill-rule:evenodd;}</style></defs><title>sale-icon</title><g id="Layer_2" data-name="Layer 2"><g id="Capa_1" data-name="Capa 1"><rect class="cls-1" width="62" height="62.06"/><polygon class="cls-2" points="31 6.11 34.14 9.17 38.02 7.12 40.17 10.94 44.48 10.06 45.46 14.34 49.84 14.71 49.58 19.09 53.67 20.68 52.19 24.81 55.67 27.48 53.09 31.03 55.67 34.58 52.19 37.25 53.67 41.39 49.58 42.97 49.84 47.35 45.46 47.72 44.48 52 40.17 51.12 38.02 54.95 34.14 52.89 31 55.96 27.86 52.89 23.98 54.95 21.82 51.12 17.52 52 16.54 47.72 12.16 47.35 12.42 42.97 8.33 41.39 9.81 37.25 6.33 34.58 8.91 31.03 6.33 27.48 9.81 24.81 8.33 20.68 12.42 19.09 12.16 14.71 16.54 14.34 17.52 10.06 21.82 10.94 23.98 7.12 27.86 9.17 31 6.11"/><path class="cls-3" d="M20.41,25.12a4.66,4.66,0,0,0,1.34,3.41,5,5,0,0,0,3.72,1.36,4.9,4.9,0,0,0,3.7-1.36,4.68,4.68,0,0,0,1.32-3.41V23.89a4.74,4.74,0,0,0-1.32-3.44,5,5,0,0,0-3.73-1.37,4.9,4.9,0,0,0-3.7,1.38,4.71,4.71,0,0,0-1.33,3.43Zm3.09-1.23a2.5,2.5,0,0,1,.5-1.57,1.71,1.71,0,0,1,1.44-.65,1.75,1.75,0,0,1,1.46.65,2.45,2.45,0,0,1,.52,1.57v1.23a2.39,2.39,0,0,1-.51,1.55,1.75,1.75,0,0,1-1.44.63A1.77,1.77,0,0,1,24,26.67a2.39,2.39,0,0,1-.51-1.55Zm8,14.3a4.67,4.67,0,0,0,1.35,3.42A5,5,0,0,0,36.57,43a4.9,4.9,0,0,0,3.7-1.36,4.71,4.71,0,0,0,1.32-3.43V37a4.69,4.69,0,0,0-1.33-3.42,5,5,0,0,0-3.72-1.37,4.93,4.93,0,0,0-3.71,1.38A4.69,4.69,0,0,0,31.49,37ZM34.58,37a2.48,2.48,0,0,1,.5-1.55,2,2,0,0,1,2.91,0A2.43,2.43,0,0,1,38.5,37v1.23a2.63,2.63,0,0,1-.45,1.61,1.74,1.74,0,0,1-1.48.59,1.81,1.81,0,0,1-1.44-.64,2.36,2.36,0,0,1-.55-1.56Zm3.54-14.21-2.26-1.19L24.53,39.72l2.27,1.2Z"/></g></g></svg>