<svg xmlns="http://www.w3.org/2000/svg" viewBox="0 0 369.59 133.25">
  <title>Varsity Base Logo</title>
  <path id="genuinely_american" d="M110.06,48.56v4.32c0,2.59-1.68,3.55-4.22,3.55h-.2c-2.54,0-4.22-.93-4.22-3.55V42.8c0-2.5,1.68-3.55,4.22-3.55h.2c2.54,0,4.22,1,4.22,3.55v1.44a.87.87,0,0,1-1,1h-.86a.86.86,0,0,1-1-1v-1c0-1.2-.63-1.53-1.54-1.53s-1.54.33-1.54,1.53v9.22c0,1.2.63,1.54,1.54,1.54s1.54-.34,1.54-1.54V50h-.68a.86.86,0,0,1-1-1v-.43a.87.87,0,0,1,1-1h2.5A.87.87,0,0,1,110.06,48.56Zm8.74,7.68h-5.52a.86.86,0,0,1-1-1V40.4a.86.86,0,0,1,1-1h5.44a.86.86,0,0,1,1,1v.53a.86.86,0,0,1-1,1H115.1V46.5H118a.86.86,0,0,1,1,1V48a.87.87,0,0,1-1,1H115.1v4.84h3.7a.87.87,0,0,1,1,1v.53A.86.86,0,0,1,118.8,56.24Zm4.32,0h-.63a.86.86,0,0,1-1-1V40.4a.87.87,0,0,1,1-1h1a1,1,0,0,1,1.08.79l3.26,9.6V40.4a.87.87,0,0,1,1-1h.63a.87.87,0,0,1,1,1V55.28a.86.86,0,0,1-1,1h-.87a1,1,0,0,1-1.08-.79l-3.4-10.13v10A.86.86,0,0,1,123.12,56.24ZM141.19,40.4V52.88c0,2.59-1.63,3.55-4.18,3.55h-.09c-2.55,0-4.18-.93-4.18-3.55V40.4a.87.87,0,0,1,1-1h.86a.86.86,0,0,1,1,1V52.45c0,1.2.53,1.54,1.44,1.54s1.44-.34,1.44-1.54V40.4a.87.87,0,0,1,1-1h.87A.87.87,0,0,1,141.19,40.4Zm4.27,15.84h-.86a.86.86,0,0,1-1-1V40.4a.86.86,0,0,1,1-1h.86a.87.87,0,0,1,1,1V55.28A.86.86,0,0,1,145.46,56.24Zm5,0h-.62a.86.86,0,0,1-1-1V40.4a.86.86,0,0,1,1-1h1a1,1,0,0,1,1.08.79l3.27,9.6V40.4a.86.86,0,0,1,1-1h.62a.86.86,0,0,1,1,1V55.28a.86.86,0,0,1-1,1H156a1,1,0,0,1-1.08-.79l-3.41-10.13v10A.86.86,0,0,1,150.5,56.24Zm16.15,0h-5.52a.86.86,0,0,1-1-1V40.4a.87.87,0,0,1,1-1h5.45a.87.87,0,0,1,1,1v.53a.87.87,0,0,1-1,1H163V46.5h2.88a.86.86,0,0,1,1,1V48a.87.87,0,0,1-1,1H163v4.84h3.69a.86.86,0,0,1,1,1v.53A.86.86,0,0,1,166.65,56.24Zm9.82-1.53v.57a.86.86,0,0,1-1,1h-5.16a.86.86,0,0,1-1-1V40.4a.86.86,0,0,1,1-1h.86a.86.86,0,0,1,1,1V53.75h3.34A.86.86,0,0,1,176.47,54.71Zm5,.57a.86.86,0,0,1-1,1h-.87a.86.86,0,0,1-1-1v-5l-3.05-9.75c-.21-.65.1-1.08.8-1.08h.93a1,1,0,0,1,1.06.84l1.68,7,1.68-7a1,1,0,0,1,1.05-.84h.89c.7,0,1,.43.79,1.08l-3,9.75Zm15.86,1h-.89a1,1,0,0,1-1-.89l-.46-2.85h-3.07l-.45,2.85a1,1,0,0,1-1,.89h-.74a.79.79,0,0,1-.87-1l2.76-14.91a1,1,0,0,1,1.06-.86h1.73a1,1,0,0,1,1.06.86l2.8,14.91A.78.78,0,0,1,197.3,56.24Zm-2.74-6.05-1.17-7.46-1.18,7.46ZM206.68,53a1,1,0,0,1-1,.79,1,1,0,0,1-1.06-.79l-2.25-7v9.31a.86.86,0,0,1-1,1h-.67a.86.86,0,0,1-1-1V40.4a.86.86,0,0,1,1-1h.86a1,1,0,0,1,1.08.79l3,9,3-9a1,1,0,0,1,1.08-.79h1a.87.87,0,0,1,1,1V55.28a.86.86,0,0,1-1,1h-.77a.86.86,0,0,1-1-1V46Zm13.83,3.24H215a.86.86,0,0,1-1-1V40.4a.86.86,0,0,1,1-1h5.44a.86.86,0,0,1,1,1v.53a.86.86,0,0,1-1,1h-3.62V46.5h2.88a.86.86,0,0,1,1,1V48a.87.87,0,0,1-1,1h-2.88v4.84h3.7a.87.87,0,0,1,1,1v.53A.86.86,0,0,1,220.51,56.24Zm10.72,0h-.84a1,1,0,0,1-1.08-.79l-1.87-5.9H226v5.73a.86.86,0,0,1-1,1h-.87a.86.86,0,0,1-1-1V40.4a.87.87,0,0,1,1-1h3.39c2.54,0,4.22,1,4.22,3.55v3A3.08,3.08,0,0,1,230,49.11l2,6A.76.76,0,0,1,231.23,56.24ZM226,47.15h1.46c.91,0,1.54-.34,1.54-1.54V43.42c0-1.2-.63-1.53-1.54-1.53H226Zm10,9.09h-.87a.86.86,0,0,1-1-1V40.4a.87.87,0,0,1,1-1H236a.87.87,0,0,1,1,1V55.28A.86.86,0,0,1,236,56.24Zm11.85-5.88v2.52c0,2.59-1.68,3.55-4.22,3.55h-.05c-2.54,0-4.22-.93-4.22-3.55V42.8c0-2.5,1.68-3.55,4.22-3.55h.05c2.54,0,4.22,1,4.22,3.55v2.11a.86.86,0,0,1-1,1H246a.86.86,0,0,1-1-1V43.23c0-1.17-.58-1.53-1.47-1.53s-1.46.36-1.46,1.53v9.22c0,1.18.58,1.54,1.46,1.54s1.47-.36,1.47-1.54V50.36a.86.86,0,0,1,1-1h.86A.86.86,0,0,1,247.84,50.36Zm9.84,5.88h-.89a1,1,0,0,1-1-.89l-.45-2.85h-3.08l-.45,2.85a1,1,0,0,1-1,.89H250a.78.78,0,0,1-.86-1L251.9,40.3a1,1,0,0,1,1-.86h1.73a1,1,0,0,1,1.06.86l2.81,14.91A.79.79,0,0,1,257.68,56.24ZM255,50.19l-1.18-7.46-1.18,7.46Zm6.76,6.05h-.62a.86.86,0,0,1-1-1V40.4a.86.86,0,0,1,1-1h1a1,1,0,0,1,1.08.79l3.26,9.6V40.4a.87.87,0,0,1,1-1H268a.87.87,0,0,1,1,1V55.28a.86.86,0,0,1-1,1h-.87a1,1,0,0,1-1.08-.79l-3.41-10.13v10A.86.86,0,0,1,261.71,56.24Z"/>
  <path id="varsity" d="M7.37,133.25,0,84.74v-9.8H12.15l3.64,41.87h.81l3.65-41.87H32.4v9.8L25,133.25Zm41.88-11.34H43.09l-1,11.34H30v-9.8l7.37-48.51H55l7.37,48.51v9.8H50.22Zm-5.11-12.15h4L46.57,91.38h-.81Zm21.47,23.49V74.94H90.88c3.56,1.29,6.32,3.56,6.32,9.72V97.05c0,5.59-2.27,8-5.43,9.39l7,18.63v8.18H87.4l-7.46-22.68H78.57v22.68Zm13-47.78V100h4.86l.81-.81v-13l-.81-.8Zm53.7,24.78v13.28c0,6.16-2.76,8.43-6.32,9.72H107c-3.57-1.29-6.32-3.56-6.32-9.72V112h13v9.88l.81.81h4l.81-.81V113l-.73-1.13-13.36-6c-4-1.79-4.54-4.54-4.54-8.91V84.66c0-6.16,2.75-8.43,6.32-9.72h19c3.56,1.29,6.32,3.56,6.32,9.72V95.51h-13V86.27l-.81-.8h-4l-.81.8v8.51l1,1.3,13,5.26C131.7,103,132.27,105.88,132.27,110.25Zm3.65,23V121.1h2.42v-34h-2.42V74.94h17.81V87.09H151.3v34h2.43v12.15Zm42.52-46.16v46.16h-13V87.09h-9.32V74.94h31.59V87.09Zm20.65,46.16V110.33l-9.72-25.59v-9.8h12.15l3.65,20H206l3.64-20h12.15v9.8l-9.72,25.59v22.92Z"/>
  <path id="base" d="M237.16,133.25V74.94h25.27c3.57,1.29,6.32,3.56,6.32,9.72v8.66c0,4.7-1.62,8-6.4,9.72,4.78,1.7,6.4,5,6.4,9.72v10.77c0,6.16-2.75,8.43-6.32,9.72Zm13-34H255l.81-.81v-13l-.81-.81h-4.86Zm5.67,23.49v-13L255,109h-4.86v14.58H255Zm35.48-.81h-6.16l-1,11.34H272v-9.8l7.37-48.51H297l7.37,48.51v9.8H292.24Zm-5.1-12.15h4.05L288.6,91.38h-.81Zm52.64.49v13.28c0,6.16-2.75,8.43-6.31,9.72h-19c-3.56-1.29-6.31-3.56-6.31-9.72V112h13v9.88l.81.81h4l.81-.81V113l-.72-1.13-13.37-6c-4-1.79-4.53-4.54-4.53-8.91V84.66c0-6.16,2.75-8.43,6.31-9.72h19c3.56,1.29,6.31,3.56,6.31,9.72V95.51h-13V86.27l-.81-.8h-4l-.81.8v8.51l1.05,1.3,13,5.26C338.25,103,338.81,105.88,338.81,110.25Zm3.65-35.31h26.73V87.09H355.42V97.61h13v12.15h-13V121.1h14.17v12.15H342.46Z"/>
  <path id="star-center" d="M176.81,0l3.1,9.52-8.1,5.87h10l3.09,9.52L188,15.39h10l-8.1-5.87L193,0l-8.09,5.89Z"/>
  <path id="star-left" d="M151.71,8.91l2,6.11-5.21,3.77h6.43l2,6.12,2-6.12h6.43L160.12,15l2-6.11-5.2,3.78Z"/>
  <path id="star-right" d="M208.3,8.91l2,6.11-5.2,3.77h6.43l2,6.12,2-6.12h6.43L216.71,15l2-6.11-5.2,3.78Z"/>
  <path id="lines-left" d="M90.09,41.25H57.18a1,1,0,0,1,0-2H90.09a1,1,0,0,1,0,2Zm1,7.09a1,1,0,0,0-1-1H35.29a1,1,0,1,0,0,2h54.8A1,1,0,0,0,91.09,48.34Zm0,8.09a1,1,0,0,0-1-1H57.18a1,1,0,0,0,0,2H90.09A1,1,0,0,0,91.09,56.43Z"/>
  <path id="lines-right" d="M280.31,55.43h32.92a1,1,0,0,1,0,2H280.31a1,1,0,0,1,0-2Zm-1-7.09a1,1,0,0,0,1,1h54.8a1,1,0,0,0,0-2h-54.8A1,1,0,0,0,279.31,48.34Zm0-8.09a1,1,0,0,0,1,1h32.92a1,1,0,0,0,0-2H280.31A1,1,0,0,0,279.31,40.25Z"/>
</svg>
